<svg width="153" height="711" viewBox="0 0 153 711" fill="none" xmlns="http://www.w3.org/2000/svg">
<path d="M54.645 66.2741C54.645 68.4084 51.0879 67.1634 49.3094 66.2741C43.0847 61.8278 47.5309 44.0426 49.3094 37.8177C50.7946 32.6193 53.382 27.0583 56.5211 21.811M54.645 66.2741C54.645 64.1399 57.6093 67.1634 59.0914 68.9419M54.645 66.2741C54.0521 62.1243 53.0442 49.7338 53.7557 47.5996C54.645 44.9318 58.8258 28.4572 61.759 26.2573C65.3161 23.5895 69.7624 12.9184 73.3195 12.9184C77.7658 11.7327 84.951 10.6419 86.6584 12.9184C89.3262 16.4754 91.994 20.9217 89.3262 24.4788C88.4369 32.1857 85.7691 47.5996 82.2121 47.5996C78.655 51.1567 70.652 67.1634 68.8733 66.2741M59.0914 68.9419C62.352 68.9419 68.8733 68.4084 68.8733 66.2741M59.0914 68.9419C53.9632 69.3062 51.9772 76.9453 50.1986 76.9453C48.7758 76.9453 44.8631 92.952 43.0845 100.955L42.8793 103.623M68.8733 66.2741C68.8733 63.6064 74.2087 69.8312 74.2087 66.2741C74.2087 62.7171 86.6585 58.2708 92.8834 37.8177C99.1082 17.3647 97.3297 8.47206 92.8834 6.69353C88.4371 4.91501 83.1012 -0.42057 74.2087 1.35796C68.4727 5.24363 61.7357 13.0945 56.5211 21.811M56.5211 21.811C53.5244 22.1074 46.6417 27.858 43.0847 48.4889C40.239 48.4889 38.9348 49.6746 38.6384 50.2674C37.4527 53.528 35.2592 60.9386 35.9706 64.4956C36.8598 68.9419 28.8565 98.2876 29.7458 100.955C30.635 103.623 20.8531 113.405 22.6316 116.962C24.0544 119.808 23.8173 124.076 23.5209 125.855C23.3278 128.172 23.0906 131.358 22.8832 134.747M75.098 198.774C73.5867 200.789 76.0707 208.227 78.9934 214.781M78.9934 214.781C81.2299 219.797 83.7234 224.296 84.8799 225.452C87.5477 228.12 93.7725 266.358 93.7725 269.915C93.7725 273.472 99.9973 307.264 99.9973 314.378C99.9973 321.493 95.551 366.845 93.7725 374.848C91.994 382.852 81.3228 392.634 80.4336 393.523C79.5443 394.412 77.7658 409.53 77.7658 410.419C77.7658 411.308 78.655 409.53 82.2121 410.419C90.2155 417.533 90.2155 425.536 90.2155 429.093C90.2155 432.65 88.4369 453.103 88.4369 455.771C88.4369 458.439 90.2155 469.11 91.994 472.667C93.4168 475.513 90.2155 489.86 88.4369 496.677C87.5477 506.459 91.994 524.244 91.994 528.691C91.994 534.385 108.89 552.701 107.111 555.369C105.333 558.036 132.011 596.275 139.125 603.389C146.239 610.503 149.796 616.728 147.128 619.396C144.46 622.063 141.793 639.849 140.903 640.738C140.014 641.627 143.571 664.748 149.796 672.751C156.021 680.755 145.35 697.651 143.571 702.986C141.793 708.322 124.897 714.547 117.783 702.986C110.668 691.426 112.447 681.644 112.447 680.755C112.447 679.865 120.45 656.745 119.561 643.406C118.672 630.067 108.001 609.614 108.89 607.835C109.779 606.057 104.444 582.936 104.444 581.157C104.444 579.379 91.994 564.261 91.994 562.483C91.994 560.704 89.3262 555.369 88.4369 555.369C87.5477 555.369 74.2087 537.583 74.2087 534.916C74.2087 532.781 72.4302 528.691 71.5409 526.912C70.6517 525.727 69.4067 520.687 71.5409 510.016C74.2087 496.677 66.2054 475.335 66.2054 472.667C66.2054 469.999 44.8631 469.11 42.1953 469.11C40.061 469.11 37.1561 481.56 35.9704 487.785C36.5633 491.638 38.1047 500.057 39.5275 502.902C41.306 506.459 42.1953 529.58 42.1953 532.248C42.1953 534.382 41.8988 550.626 44.8631 558.926C51.6807 562.779 58.202 572.265 61.759 579.379C66.5644 588.989 56.4235 601.61 56.4235 607.835C56.4235 612.37 67.0946 614.06 67.0946 624.731C67.0946 635.402 82.2121 661.191 83.9906 667.416C85.7691 673.641 75.9872 682.533 75.098 686.98C74.2087 691.426 46.6416 691.426 46.6416 689.647C46.6416 688.225 38.9346 681.348 35.0812 678.087V664.748C35.9704 656.448 38.2825 639.849 40.4167 639.849C43.0845 639.849 40.4167 609.614 35.9704 608.724C31.5241 607.835 27.0778 585.604 27.0778 582.936C27.0778 580.802 30.6349 574.34 32.4134 571.375C31.2277 559.815 28.5006 536.338 27.0778 534.916C25.655 533.493 22.3351 525.43 20.853 521.577V512.684C19.3709 511.202 16.7624 507.882 18.1852 506.459C19.9637 504.681 16.4066 492.231 13.7389 487.785C11.0711 483.338 5.7355 453.993 5.7355 453.103C5.7355 452.214 4.84616 443.322 2.1784 442.432C0.0442012 441.721 1.28915 424.351 2.1784 415.754L8.40349 399.748C1.28965 394.412 2.17809 365.956 2.1784 356.174C2.17891 340.416 17.2959 276.14 15.5173 276.14C13.7388 276.14 14.6281 243.237 14.6281 240.57C14.6281 237.902 16.4065 204.999 14.6281 203.221C13.2053 201.798 15.2209 191.364 16.4065 186.325C17.5922 183.953 19.2522 178.677 16.4065 176.543C12.8495 173.875 23.5209 157.868 22.6316 152.533C22.2545 150.27 22.3605 144.91 22.6316 139.312M78.9934 214.781C85.9947 209.149 99.6416 196.64 98.2188 191.66C96.4403 185.435 92.8832 172.096 91.1047 172.096C89.3262 172.096 82.2121 148.086 82.2121 144.529C82.2121 140.972 78.9934 130.301 78.9934 126.744C78.9934 123.187 89.3262 106.291 90.2155 107.18C90.9269 107.18 92.8832 107.18 93.7725 107.18M93.7725 107.18C93.1797 108.069 92.3497 109.848 93.7725 109.848C95.551 109.848 100.887 110.737 100.887 109.848M93.7725 107.18C95.2546 106.587 95.551 104.512 97.3296 103.623C98.7524 102.912 101.776 99.1769 104.444 97.3983C106.222 94.7305 116.004 92.0628 117.783 91.1735C119.205 90.4621 124.6 88.5057 127.564 87.6164M100.887 109.848C100.887 108.959 110.668 106.291 111.558 107.18M100.887 109.848C100.294 108.366 99.4638 105.224 100.887 104.512C102.665 103.623 108.89 98.2876 110.668 97.3983C111.793 96.8359 118.766 94.239 119.561 93.8413C121.34 92.952 125.241 90.9735 126.675 93.8413C127.564 95.6198 125.786 97.3983 124.897 98.2876C124.007 99.1769 121.34 101.845 119.561 102.734C117.97 103.529 112.094 107.348 111.558 107.18M111.558 107.18C112.447 108.069 122.229 104.512 122.229 103.623C122.229 102.734 131.215 96.3213 132.011 94.7305C132.9 92.952 134.679 86.7272 127.564 87.6164M127.564 87.6164C124.897 87.6164 119.561 84.0594 117.783 83.1701C116.004 82.2809 105.333 79.6131 104.444 83.1701C102.962 84.0594 99.6416 85.6601 98.2188 84.9487C96.4403 84.0594 89.3262 84.0594 89.3262 84.9487C89.3262 85.8379 82.2121 92.952 83.9906 94.7305C85.4134 96.1534 77.4694 107.773 73.3195 113.405L70.6517 117.851C69.1696 119.333 66.2054 122.653 66.2054 124.076C66.2054 125.855 64.4268 134.747 65.3161 135.637C66.2054 136.526 68.8731 148.086 68.8731 148.976C68.8731 149.865 69.7624 166.761 68.8731 166.761C67.9839 166.761 66.2054 164.093 63.5376 164.093C60.8698 164.093 54.6449 163.204 54.6449 164.093C53.9335 164.804 53.1628 164.982 52.8664 164.982L50.1986 163.204H41.306M41.306 163.204C41.306 160.832 40.9503 155.556 39.5275 153.422M41.306 163.204C41.0096 165.575 40.2389 170.496 39.5275 171.207C38.6382 172.096 46.6416 180.1 46.6416 181.878C46.6416 183.657 48.4201 190.771 41.306 195.217M39.5275 153.422C37.749 150.754 35.9704 138.304 36.8597 135.637C37.749 132.969 35.9704 125.855 38.6382 124.965C40.7724 124.254 41.8988 116.369 42.1953 112.516L42.8793 103.623M39.5275 153.422C41.0096 153.125 43.9738 152.177 43.9738 150.754C43.9738 148.976 47.5308 142.751 46.6416 140.972C45.7523 139.194 48.4201 132.969 47.5308 131.19C46.6416 129.412 47.5308 122.298 46.6416 122.298C45.7523 122.298 45.7523 118.741 45.7523 116.962C45.7523 115.184 45.7523 111.627 46.6416 110.737C47.5308 109.848 47.5308 108.069 47.5308 107.18C47.5308 106.469 44.4298 104.512 42.8793 103.623M22.8832 134.747L15.5174 135.637C15.8138 136.822 16.5845 139.194 17.2959 139.194C18.1852 139.194 22.6259 139.429 22.6316 139.312M22.8832 134.747C22.7914 136.248 22.7054 137.789 22.6316 139.312" stroke="#613D25" stroke-width="2"/>
<path d="M21.781 144.67C20.9983 144.997 19.6201 146.272 18.7778 146.272C18.141 146.272 20.0211 145.469 20.1348 145.426C20.3151 145.358 21.1672 144.358 20.6242 144.358C20.1488 144.358 19.3546 145.388 18.978 145.671" stroke="#613D25" stroke-width="2" stroke-linecap="round"/>
<path d="M21.7801 151.677C19.7391 151.325 17.5434 151.146 16.2187 149.475C15.7552 148.89 14.7645 146.894 15.2621 147.45C16.8331 149.206 17.0629 152.72 19.5333 153.635C20.7331 154.079 18.9842 153.494 18.6434 153.345C17.3057 152.76 15.6324 152.303 14.6615 151.121C14.0817 150.415 15.953 151.66 16.0852 151.788C17.0038 152.68 17.9409 153.578 18.7658 154.558C19.6929 155.659 18.4838 153.987 18.154 153.657C17.6754 153.178 16.0065 151.299 15.2844 151.299C15.2675 151.299 17.0612 154.708 17.2865 155.081C17.8897 156.079 18.5333 157.18 19.2774 158.073C19.7464 158.635 19.4025 158.684 18.7769 158.684C17.2341 158.684 15.5067 158.059 14.3834 156.983C14.0381 156.652 13.0112 155.79 13.1822 155.192C13.4207 154.357 15.8358 156.95 16.063 157.216C16.8549 158.143 17.7078 158.953 18.5767 159.797C19.4049 160.601 18.6257 160.216 17.7091 160.486C16.001 160.99 14.5998 163.222 13.4602 160.976C13.1261 160.317 12.4592 159.148 12.4592 158.373C12.4592 158.062 13.6855 159.777 13.7717 159.93C14.4712 161.169 14.778 162.268 15.7738 163.356C16.2354 163.86 17.0107 164.222 17.6535 164.479C17.656 164.48 17.2831 164.527 17.1752 164.579C16.752 164.785 16.3469 165.134 15.9629 165.402C15.1737 165.955 14.8451 166.292 13.894 166.292C12.8243 166.292 11.6626 162.674 12.3925 163.456C13.4175 164.554 14.0397 166.134 14.9396 167.349C15.1837 167.678 16.3284 168.094 15.9184 168.094C13.8918 168.094 11.595 168.397 10.9688 165.892" stroke="#613D25" stroke-width="2" stroke-linecap="round"/>
<path d="M15.7725 170.496C14.3484 170.496 13.2336 169.367 12.1688 168.539C11.1125 167.717 13.6167 169.428 13.8705 169.484C14.7037 169.669 14.1153 168.895 13.5257 168.895C13.1171 168.895 14.3393 169.01 14.727 169.139C15.1768 169.289 14.9947 169.23 14.7715 168.895" stroke="#613D25" stroke-width="2" stroke-linecap="round"/>
<path d="M46.6055 144.469C46.6055 145.679 46.8007 146.785 47.0949 147.962C47.444 149.358 47.717 150.974 48.2071 152.322C48.4948 153.113 48.6076 153.998 48.6076 154.836C48.6076 155.603 49.008 156.311 49.008 157.082C49.008 160.336 49.6086 160.967 49.6086 163.089" stroke="#613D25" stroke-width="2" stroke-linecap="round"/>
<path d="M10.7676 172.699C9.43289 172.699 8.09816 172.699 6.76344 172.699C5.64436 172.699 4.15373 173.716 3.25977 174.412C0.0477514 176.91 1.78905 181.728 3.15967 184.811C4.18145 187.11 6.65918 189.313 8.60981 190.873C9.31206 191.435 10.5905 192.083 11.4572 192.33C11.7489 192.414 12.4869 192.75 12.7252 192.964C13.1543 193.351 14.3901 193.48 12.7697 193.12" stroke="#613D25" stroke-width="2" stroke-linecap="round"/>
<path d="M12.7708 175.702C12.7708 178.13 10.793 180.569 9.72319 182.709C8.89871 184.358 8.76664 185.759 8.76664 187.614C8.76664 189.341 8.70379 190.897 9.56748 192.408C10.3586 193.793 11.2797 195.978 12.7708 196.724" stroke="#613D25" stroke-width="2" stroke-linecap="round"/>
<path d="M14.3713 189.116C14.3713 187.341 12.8671 185.969 12.7696 184.311C12.6809 182.804 11.9688 181.458 11.9688 179.906" stroke="#613D25" stroke-width="2" stroke-linecap="round"/>
<path d="M43.2012 471.611C47.6686 472.526 51.7637 474.854 55.2137 477.729C56.2405 478.585 56.931 480.348 57.1713 481.622C57.3875 482.768 58.0039 484.399 57.0156 482.423" stroke="#613D25" stroke-width="2" stroke-linecap="round"/>
<path d="M47.2057 473.813C46.605 473.813 46.0044 473.813 45.4038 473.813C43.9292 473.813 46.07 474.535 46.605 474.881C48.9547 476.404 50.7907 478.199 52.8894 479.998C53.0462 480.132 55.2614 482.091 55.3698 481.688C55.7042 480.446 53.5568 478.574 52.856 477.862C51.5718 476.559 50.3048 475.513 48.6961 474.625C47.2573 473.832 45.9385 473.728 44.4472 474.169C44.1211 474.266 43.3122 474.325 43.0013 474.169C42.6355 473.987 42.9951 473.877 43.246 473.958C44.1652 474.254 44.7686 475.074 45.3037 475.827C45.6885 476.368 47.1267 478.539 45.6707 477.084C44.4527 475.865 42.9807 474.77 41.3996 474.058C40.7624 473.771 40.9966 474.972 41.0437 475.259C41.2387 476.449 42.1445 477.561 42.8122 478.53C43.0013 478.804 44.2709 480.476 43.9578 480.176C43.4932 479.73 42.801 479.419 42.4007 478.919C42.0154 478.437 46.4619 479.083 46.9721 479.23C52.5082 480.83 56.9698 485.049 61.1536 488.807C62.7544 490.245 63.8215 492.172 65.4247 493.59C66.2275 494.299 67.2322 495.036 68.1164 495.625C70.0595 496.921 63.8063 493.799 61.7765 492.644C59.8158 491.529 57.2994 490.053 55.8592 488.229C55.2928 487.511 55.5118 487.618 56.0816 488.251C58.6025 491.052 61.3954 493.499 64.1901 496.014C65.0933 496.827 67.1499 497.953 67.6159 499.118C67.7464 499.444 67.1548 498.585 66.8929 498.35C65.6651 497.252 64.359 496.255 63.1557 495.125C60.1596 492.311 57.9493 488.949 55.2585 485.871C53.4015 483.746 51.8656 482.204 49.0409 481.733C47.5465 481.484 46.2896 481.403 45.0034 480.509C44.7138 480.308 42.8437 478.567 43.5574 479.775C43.7462 480.095 45.2614 482.232 44.1024 481.622C43.3573 481.229 42.5863 480.682 41.8 480.42" stroke="#613D25" stroke-width="2" stroke-linecap="round"/>
<path d="M41.7992 479.419C41.6785 481.954 40.7202 484.588 40.2865 487.094C40.0074 488.707 40.1976 490.462 40.1976 492.099C40.1976 495.08 40.1632 486.137 40.2087 483.157C40.2256 482.05 40.5205 480.858 40.3978 479.753C40.3242 479.091 40.093 481.052 39.9973 481.711C39.7191 483.628 39.5969 485.536 39.5969 487.472C39.5969 488.203 39.5969 488.933 39.5969 489.663C39.5969 490.501 39.5969 487.988 39.5969 487.15C39.5969 486.31 39.6017 485.478 39.3967 484.658C39.2506 484.074 39.1819 485.847 39.152 486.449C39.032 488.863 38.8097 491.259 38.7961 493.679C38.7953 493.814 38.8483 496.925 39.0964 496.76C39.7562 496.32 39.3967 493.63 39.3967 493C39.3967 490.966 39.4807 488.963 39.0853 486.961C38.6353 484.683 39.6695 487.787 39.9084 488.384C40.9551 491.001 41.5263 493.867 42.7892 496.393C43.4693 497.753 44.5397 498.871 44.9581 500.375C45.4605 502.18 45.4275 504.167 46.1037 505.925C46.2192 506.225 46.2581 506.507 46.0481 505.892C45.3975 503.983 44.5001 502.217 43.6011 500.419C42.0586 497.334 41.2963 493.961 39.8416 490.854C39.6925 490.535 38.1129 488.992 38.4179 489.663C39.4197 491.867 40.7015 493.961 41.7547 496.148C41.8391 496.323 42.0834 497.102 41.9549 496.459C41.7186 495.277 41.0256 494.186 40.5312 493.1C40.205 492.384 39.8255 491.45 39.1965 490.92C39.0062 490.76 38.9963 493.012 38.9963 493.178C38.9963 497.572 39.3056 501.194 41.6435 505.091C42.2234 506.057 41.9171 504.628 41.8437 504.334C41.61 503.4 42.1208 504.989 42.233 505.202C44.8236 510.124 48.0057 514.941 48.0057 520.685C48.0057 521.293 48.0057 521.901 48.0057 522.509C48.0057 522.906 48.2147 524.029 47.9946 523.699C47.4927 522.946 47.5453 521.236 47.4051 520.384C47.1006 518.536 46.8712 516.688 46.6043 514.834C46.471 513.909 46.3811 511.657 45.7589 510.897C44.8482 509.784 45.6523 513.783 45.7144 514.011C46.7323 517.743 47.6055 521.721 48.1169 525.557C48.2524 526.572 48.2059 527.604 48.2059 528.626C48.2059 529.766 47.9477 528.264 47.8834 527.948C47.0445 523.818 46.8055 519.635 46.1149 515.49C45.8593 513.957 45.7388 511.935 44.7579 510.652C44.4365 510.232 44.1108 509.795 44.046 510.63C43.8461 513.207 44.0437 515.866 44.5021 518.405C44.6803 519.392 44.9747 520.343 45.1917 521.319C45.2979 521.797 45.0513 520.349 45.0026 519.862" stroke="#613D25" stroke-width="2" stroke-linecap="round"/>
<path d="M42.4006 528.871C46.8536 533.499 48.0018 540.028 49.3078 546.056C49.704 547.884 50.2465 549.352 51.2987 550.883C51.7272 551.506 51.6335 550.818 51.5546 550.36C51.0941 547.69 49.728 545.068 48.6515 542.608C46.8452 538.479 44.9663 534.338 42.8455 530.362C42.4346 529.591 41.1696 528.523 41.4885 530.206C41.8069 531.886 42.7043 533.279 43.7353 534.61C45.3084 536.642 46.8493 538.61 48.1844 540.817C50.4476 544.558 51.8433 548.648 52.9672 552.852C52.9992 552.972 53.3474 554.704 53.4899 554.676C53.7909 554.616 51.411 547.403 51.2876 547.023C49.1288 540.386 46.9053 533.773 43.524 527.636C43.3435 527.309 42.0001 525.143 42.0001 526.591C42.0001 532.005 45.0848 536.445 47.1055 541.295C48.2735 544.099 48.9942 547.153 49.6526 550.116C49.8697 551.093 50.0085 552.052 50.0085 553.052C50.0085 553.819 49.6023 551.571 49.3411 550.85C47.8604 546.76 46.41 542.862 44.4916 538.971C43.9652 537.903 43.9781 536.607 43.6018 535.478" stroke="#613D25" stroke-width="2" stroke-linecap="round"/>
<path d="M45.2048 544.087C45.2048 542.596 45.5135 547.061 45.8499 548.514C46.5251 551.43 46.9303 554.394 47.6073 557.301C47.9379 558.721 48.1954 560.173 48.6084 561.572C49.2533 563.758 48.645 559.624 48.5861 559.337C47.922 556.099 47.0708 552.917 46.5062 549.66C46.302 548.482 46.3013 546.557 45.6052 545.533C45.4051 545.239 45.4253 547.732 45.4495 548.047C45.5194 548.955 45.684 549.853 45.761 550.761C45.7797 550.982 45.8187 553.16 45.761 553.119C44.7504 552.397 44.4468 549.356 44.1259 548.258C43.5147 546.167 43.9382 547.606 44.2149 548.748C44.7362 550.898 44.8697 553.113 45.405 555.255C45.5838 555.97 45.8869 556.749 46.4506 557.257C46.9192 557.678 47.0027 555.666 47.0067 555.633C47.0787 555.025 47.7299 551.638 47.1068 551.139C46.9402 551.006 47.0066 551.56 47.0178 551.773C47.0676 552.719 47.2426 553.643 47.396 554.576C47.6025 555.832 47.6998 557.07 48.0078 558.302" stroke="#613D25" stroke-width="2" stroke-linecap="round"/>
<path d="M28.5856 545.488C28.1156 545.697 27.715 547.162 27.4844 547.613C26.8638 548.827 26.4283 550.155 25.9717 551.439C25.5677 552.575 25.2479 553.702 24.9818 554.876C24.9316 555.097 24.7816 556.248 24.7816 555.41C24.7816 553.226 24.946 550.255 26.0718 548.325C26.1731 548.151 25.9261 550.641 25.8939 550.849C25.3197 554.557 24.4304 558.206 23.825 561.905C23.5933 563.322 23.6523 564.772 23.2912 566.165C23.2077 566.487 23.0356 567.261 22.9908 566.366C22.8777 564.103 22.9797 561.813 22.9797 559.547C22.9797 559.276 22.9083 556.921 23.0242 558.413C23.409 563.367 23.1194 568.325 23.5692 573.273C23.8589 576.46 23.8551 566.864 24.3812 563.707" stroke="#613D25" stroke-width="2" stroke-linecap="round"/>
<path d="M27.3858 549.893C27.3858 546.437 27.3954 556.808 27.2301 560.26C27.1485 561.962 27.1856 563.671 27.1856 565.376C27.1856 566.714 27.1929 563.178 27.1967 563.018C27.2767 559.618 27.586 556.236 27.586 552.83C27.586 550.489 27.7667 552.86 27.8863 553.764C28.5729 558.952 29.3639 564.831 27.9864 569.959C27.4253 572.047 26.8239 574.369 25.228 575.965C23.8537 577.339 27.284 572.662 28.4313 571.093C29.4288 569.729 30.9895 567.901 30.9895 566.132C30.9895 564.926 30.4897 566.898 30.3889 567.2C29.6093 569.539 28.8132 571.786 27.7862 574.03C27.0675 575.599 26.3756 577.191 25.6284 578.746C25.1024 579.84 25.3837 578.21 25.3837 577.722" stroke="#613D25" stroke-width="2" stroke-linecap="round"/>
<path d="M21.3782 568.312C20.785 569.374 20.4423 570.658 20.0658 571.794C19.4865 573.541 18.7907 575.34 18.4863 577.166C18.1388 579.251 18.1749 581.378 18.1749 583.484C18.1749 584.86 18.254 586.122 18.5642 587.466C18.6987 588.049 18.7755 588.205 18.7755 587.477C18.7755 585.308 18.7755 583.139 18.7755 580.97C18.7755 579.677 18.5532 578.139 18.7866 576.855C18.8507 576.503 19.1122 577.504 19.1759 577.856C19.7003 580.753 20.2461 583.65 20.7331 586.554C20.9993 588.141 21.0574 590.09 21.8232 591.537C22.1371 592.13 22.1791 591.21 22.1791 591.059C22.1791 588.615 22.2893 586.142 22.0679 583.706C22.0606 583.627 21.7787 581.228 21.7787 582.438C21.7787 585.795 21.7923 589.149 21.8788 592.504C21.982 596.51 22.2476 600.641 21.8899 604.639C21.7891 605.766 21.5807 606.75 20.7776 607.554" stroke="#613D25" stroke-width="2" stroke-linecap="round"/>
<path d="M24.3822 584.129C24.3822 586.429 24.3978 588.729 24.2265 591.025C24.0163 593.842 23.9328 597.008 23.0809 599.734C22.5519 601.427 23.8103 596.255 24.3711 594.573C24.433 594.388 24.6687 593.057 24.8827 592.971C25.0475 592.906 24.981 593.317 24.9828 593.494C24.9986 594.991 25.0049 596.492 24.9828 597.988C24.932 601.43 24.1115 604.501 23.0252 607.754C21.9138 611.082 20.989 614.772 19.1768 617.809C18.7794 618.474 18.3104 619.078 17.8198 619.677C17.3807 620.214 17.7006 617.34 17.7197 617.197C18.1425 614.042 19.2145 610.403 20.467 607.442C22.6515 602.279 16.9313 618.115 14.5052 623.17C13.3713 625.532 12.1394 627.897 10.768 630.133C10.4402 630.667 9.97626 631.63 9.36652 631.934C9.08164 632.077 9.15688 631.318 9.16631 631C9.28373 627.037 10.9901 623.488 12.5476 619.911C14.6264 615.137 16.8455 610.429 19.1323 605.752C20.0749 603.824 21.3314 601.941 22.0687 599.923C22.5932 598.488 23.6643 594.063 22.9808 595.43C22.3744 596.642 22.0074 598.277 21.557 599.545C19.9449 604.085 18.6136 608.637 17.5529 613.337C17.0053 615.764 16.4966 618.185 15.8622 620.589C15.5424 621.801 15.4012 620.175 15.3839 619.744C15.2541 616.499 15.1404 612.652 16.7631 609.711C17.3559 608.637 17.1712 610.742 17.1636 611.001C17.1091 612.854 16.6388 614.579 16.1736 616.363" stroke="#613D25" stroke-width="2" stroke-linecap="round"/>
<path d="M25.3842 598.744C25.3842 604.283 25.3842 609.822 25.3842 615.362C25.3842 617.134 25.3723 611.817 25.3842 610.045C25.4115 605.96 25.9572 601.913 25.9848 597.832C25.9897 597.11 25.8477 594.288 26.185 596.586C26.6591 599.816 27.03 603.085 27.3863 606.33C27.7905 610.012 28.3456 613.765 28.3873 617.475C28.3989 618.505 28.3873 618.606 28.3873 617.564" stroke="#613D25" stroke-width="2" stroke-linecap="round"/>
<path d="M28.3862 611.758C28.3862 617.452 28.4159 623.148 28.3751 628.842C28.3388 633.899 28.36 639.003 27.5965 644.014C27.4243 645.144 27.4643 646.732 26.8846 647.762C26.6037 648.262 26.5621 647.637 26.5398 647.395C26.3139 644.934 26.3841 642.455 26.3841 639.987C26.3841 634.737 26.3841 629.487 26.3841 624.238C26.3841 623.629 26.3841 623.021 26.3841 622.413C26.3841 621.34 26.0223 624.53 25.8169 625.583C24.5764 631.946 23.5023 638.402 22.0796 644.726C22.0109 645.031 21.7793 645.928 21.7793 645.615C21.7793 643.738 22.5939 641.89 23.2253 640.165C24.9203 635.534 26.7936 631.082 29.187 626.774" stroke="#613D25" stroke-width="2" stroke-linecap="round"/>
<path d="M30.9896 621.969C30.9896 622.443 30.515 623.392 30.9896 623.392C31.1263 623.392 31.0401 623.123 31.0786 622.992C31.222 622.503 31.3676 622.143 31.568 621.657C32.6268 619.088 33.6726 616.514 34.5711 613.882C34.8126 613.175 34.7936 612.491 34.7936 611.758C34.7936 609.562 33.7037 616.012 33.1696 618.142C32.4595 620.974 31.6973 623.801 31.1119 626.662C31.0889 626.775 30.9896 627.1 30.9896 626.985C30.9896 623.096 30.9896 619.206 30.9896 615.317C30.9896 613.36 30.9896 611.402 30.9896 609.444C30.9896 609.021 30.8123 608.075 31.0897 607.687C31.2038 607.527 31.192 608.069 31.2009 608.265C31.2632 609.636 31.3367 611.012 31.4345 612.381C31.4964 613.248 31.5902 615.853 31.5902 614.984C31.5902 610.533 30.9921 606.081 29.9997 601.747C29.6001 600.003 29.0992 598.419 28.4313 596.787C28.0242 595.791 28.7316 598.917 28.8985 599.979C29.4768 603.659 31.6595 614.572 30.4557 611.046C28.8753 606.418 28.1302 601.601 27.4081 596.776C27.0232 594.204 27.013 591.447 26.3848 588.934" stroke="#613D25" stroke-width="2" stroke-linecap="round"/>
<path d="M25.7845 592.338C25.7845 582.416 25.4951 572.457 25.7956 562.54C25.8162 561.861 25.8385 560.004 26.5854 559.548C27.0771 559.248 26.9453 560.468 26.9413 560.538C26.8117 562.774 25.9354 564.924 25.2284 567.023C24.2198 570.016 22.9056 573.271 22.6034 576.444C22.565 576.847 22.5635 577.272 22.5812 577.678C22.5897 577.875 23.2203 576.215 23.2263 576.199C25.5862 570.004 27.2239 563.522 29.0101 557.146C29.5132 555.35 30.0758 553.564 30.5562 551.762C30.7331 551.099 30.7361 550.748 31.1902 550.294" stroke="#613D25" stroke-width="2" stroke-linecap="round"/>
<path d="M46.4069 548.692C46.4069 549.451 46.3527 549.984 46.6182 550.727C47.1305 552.162 47.5652 553.597 48.0086 555.054C48.2755 555.931 48.4749 557.104 49.0096 557.868C49.8084 559.009 49.6861 557.633 49.5657 556.945C49.4519 556.295 50.8115 557.997 50.8115 558.502" stroke="#613D25" stroke-width="2" stroke-linecap="round"/>
<path d="M45.6055 481.822C46.2641 481.895 47.0743 483.067 47.4518 483.513C48.7299 485.021 50.1875 487.329 50.6997 489.241C51.2291 491.217 51.6117 493.207 51.6117 495.258C51.6117 496.071 51.4695 498.835 51.812 496.459C52.3899 492.45 51.9162 487.878 50.2548 484.18C49.766 483.092 49.2823 482.009 48.642 480.999C48.3789 480.584 48.1954 480.389 48.4306 481.066C48.7775 482.063 49.2038 483.039 49.6097 484.013C50.3939 485.895 51.2366 487.758 51.812 489.719C52.6202 492.474 52.8517 495.315 53.1022 498.161C53.2542 499.888 53.6138 501.714 53.6138 503.445" stroke="#613D25" stroke-width="2" stroke-linecap="round"/>
<path d="M45.0039 503.845C45.4576 503.946 46.046 504.77 46.3386 505.069C47.5701 506.326 48.6591 507.72 49.8089 509.051C51.3995 510.892 53.2359 512.339 54.9699 514.011C55.8725 514.882 55.5132 514.386 54.9699 513.522C54.031 512.029 52.2114 509.708 52.2114 507.849" stroke="#613D25" stroke-width="2" stroke-linecap="round"/>
<path d="M21.354 155.232C21.1372 156.966 12.135 154.796 12.9051 154.75C13.442 154.719 22.0571 153.43 20.6588 154.75C17.6115 157.628 15.9817 150.482 17.1296 148.708C17.684 147.851 20.5012 149.834 20.9797 150.312C21.6726 151.005 17.5699 151.829 16.8087 152.103C13.6715 153.233 18.052 151.998 18.9209 151.89C21.2619 151.597 19.3529 157.716 18.8942 158.761C17.7822 161.294 15.2881 163.946 12.718 165.071C11.2247 165.724 13.2845 162.658 13.4399 162.397C14.4643 160.676 15.6398 158.83 17.0226 157.371C17.927 156.416 20.1775 155.454 18.1456 156.301C15.2681 157.5 11.4007 158.6 8.25292 158.6C3.05705 158.6 18.394 156.332 23.4662 155.205C24.09 155.066 22.2115 154.915 21.8352 155.071C19.7141 155.95 17.9438 158.088 16.4077 159.723C14.5685 161.681 14.5528 163.841 13.1458 166.06C11.4859 168.678 9.92006 171.383 7.90534 173.734C5.9733 175.988 12.0956 169.523 14.0816 167.317C14.5531 166.793 18.4129 162.567 18.4129 162.771C18.4129 166.024 15.0329 169.325 13.2527 171.728C12.0377 173.369 17.2156 167.077 17.6643 166.568C18.582 165.528 19.5134 164.593 20.338 163.493C22.8879 160.093 15.276 170.329 12.5308 173.573C10.9182 175.479 9.58083 173.299 9.05502 171.488C7.98264 167.794 9.84978 164.702 12.7982 162.558C14.9823 160.969 26.2467 156.194 17.0226 156.194C14.3044 156.194 11.5861 156.194 8.86787 156.194C7.54979 156.194 8.25967 156.21 9.1085 156.194C11.0558 156.157 12.9357 155.765 14.8034 155.232C15.7336 154.966 20.9503 154.297 19.5893 152.317C17.8452 149.78 13.1953 148.336 10.2849 148.013" stroke="#613D25" stroke-width="2" stroke-linecap="round"/>
<path d="M22.3178 145.125C21.1097 148.266 18.7557 150.767 16.1683 152.825C15.3084 153.509 14.1746 154.013 13.3877 154.75C12.4303 155.648 15.374 153.031 16.302 152.103C18.5239 149.882 20.3577 147.157 20.8472 143.975C20.9557 143.27 21.0133 140.779 19.9115 142.345C17.8094 145.332 14.9749 147.583 12.4251 150.205C11.8699 150.776 11.4734 151.553 12.6925 151.275C15.3565 150.666 16.849 148.436 18.4142 146.382C19.2406 145.297 21.0912 141.752 20.8472 143.093C20.5761 144.584 20.137 145.988 19.4035 147.318C17.9956 149.869 15.8173 152.344 12.6925 152.344" stroke="#613D25" stroke-width="2" stroke-linecap="round"/>
<path d="M40.5137 485.781C40.5137 491.913 43.8205 498.006 46.6963 503.24C48.488 506.501 50.3902 509.635 52.966 512.34C53.8492 513.267 56.3185 516.213 55.4913 515.235C52.3664 511.542 49.2586 507.843 46.2609 504.046C44.8539 502.263 43.2643 500.357 42.1682 498.364C41.4654 497.086 41.2616 495.648 40.5137 494.402" stroke="#613D25" stroke-width="2" stroke-linecap="round"/>
<path d="M40.5137 499.104C40.5137 506.878 41.0601 514.64 42.0811 522.354C42.1283 522.711 43.3598 529.094 43.6485 528.754C45.0459 527.11 44.0114 522.38 43.2784 520.547C42.9017 519.605 43.3284 522.597 43.605 523.573C43.7393 524.047 45.934 529.386 45.9343 529.386C47.2002 528.542 46.0459 521.154 45.8255 519.611C45.416 516.745 45.0083 513.884 44.6282 511.012C44.4214 509.45 44.3801 507.631 43.9533 506.114C43.5976 504.849 43.7584 508.745 43.8662 510.054C44.4344 516.954 45.2159 523.915 45.2159 530.844" stroke="#613D25" stroke-width="2" stroke-linecap="round"/>
<path d="M44.8246 472.458C47.7955 475.159 49.5507 478.36 51.5079 481.862C52.853 484.269 54.6387 486.198 56.1884 488.437C57.3865 490.167 53.5556 485.151 52.3134 483.452C49.3714 479.427 46.268 475.686 42.5605 472.349C42.4914 472.287 39.4775 469.595 39.4257 469.802C39.1253 471.004 44.742 474.214 45.5865 474.787C47.2062 475.886 49.5662 476.902 50.9201 478.336C51.1666 478.597 44.6968 478.728 44.977 478.728C45.701 478.728 52.8295 478.23 51.6385 479.685C49.5255 482.268 47.8314 478.871 46.6097 477.465C45.5464 476.241 40.8807 473.216 44.0409 476.376" stroke="#613D25" stroke-width="2" stroke-linecap="round"/>
<path d="M41.6895 475.984C41.6895 477.388 42.2283 478.451 43.0392 479.598C45.6295 483.262 48.596 486.497 52.0736 489.329C53.6283 490.595 54.252 491.518 52.8791 489.895C52.7107 489.696 51.4429 487.739 51.1811 488.001C50.6622 488.52 51.094 491.191 51.094 491.876C51.094 494.003 51.094 496.129 51.094 498.255C51.094 498.451 51.094 499.039 51.094 498.843C51.094 497.993 51.0988 497.145 51.0722 496.296C51.0101 494.307 50.6348 492.43 50.3103 490.483" stroke="#613D25" stroke-width="2" stroke-linecap="round"/>
<path d="M26.4078 554.356C26.4078 554.086 26.4178 556.579 26.4078 557.055C26.2674 563.726 24.4101 570.272 23.7084 576.888C23.0895 582.723 23.273 588.618 23.273 594.478C23.273 595.56 23.3054 596.753 23.4907 594.238C23.9248 588.346 24.0312 582.424 24.0567 576.517C24.062 575.28 24.7008 568.65 23.1859 567.766C22.0631 567.111 22.3182 570.23 22.0974 571.51C21.1103 577.235 20.5345 582.999 20.1817 588.796C19.9078 593.295 19.3544 606.8 19.3544 602.293C19.3544 602.143 19.4302 600.09 19.1802 600.987C18.3932 603.811 18.2103 606.83 18.0047 609.738C17.7147 613.84 17.7585 617.939 17.4169 622.038C17.1873 624.793 17.0084 621.05 17.0033 620.144C16.9451 609.97 17.8951 600.186 20.051 590.232C20.8938 586.342 21.7055 582.497 21.7055 578.499C21.7055 578.242 21.6778 575.825 21.4661 576.06C20.5523 577.076 20.381 579.317 20.1381 580.545C19.3111 584.726 19.0555 588.9 18.8755 593.15C18.5062 601.863 19.4961 611.062 17.9394 619.665C17.4045 622.621 16.309 623.702 13.4766 624.106" stroke="#613D25" stroke-width="2" stroke-linecap="round"/>
<path d="M29.9328 612.351C29.9328 619.923 29.7608 627.565 27.9735 634.969C27.885 635.336 26.7536 639.429 27.4511 637.038C28.9391 631.936 31.4513 627.459 33.7643 622.713C34.9621 620.255 35.659 617.823 35.7889 615.094C36.0345 609.936 34.729 615.949 34.1126 617.771C31.9367 624.205 29.7632 630.662 26.1884 636.472C25.1697 638.127 24.1328 640.447 22.0957 640.956" stroke="#613D25" stroke-width="2" stroke-linecap="round"/>
<path d="M44.9088 537.659C44.9088 541.862 46.1373 545.598 47.3738 549.593C47.9742 551.533 51.1308 558.223 48.2737 552.997C47.1387 550.921 45.999 548.827 44.7523 546.815C43.98 545.569 42.1699 541.788 42.1699 543.254C42.1699 549.614 47.0989 556.047 50.4649 561.096C51.0407 561.96 53.7264 563.602 52.4995 561.761C52.1188 561.19 57.8916 563.51 56.96 563.248C53.8882 562.384 51.4482 559.848 48.8607 558.123C48.645 557.979 48.0616 556.88 48.7433 556.988C50.3923 557.248 51.7557 560.079 52.6951 561.214C54.6028 563.519 60.9542 569.998 55.0036 563.953C52.9341 561.85 51.5441 559.381 50.2301 556.753C49.7184 555.73 49.5907 553.372 48.978 552.606C46.6494 549.695 53.5326 558.517 56.0209 561.292C58.6358 564.209 61.203 566.871 63.5333 569.978C64.7617 571.616 59.5208 568.667 58.0164 567.278C55.0091 564.502 60.1698 568.634 60.9509 569.665C63.8587 573.503 67.6767 578.726 68.8546 583.438" stroke="#613D25" stroke-width="2" stroke-linecap="round"/>
<path d="M60.6684 27.6121C60.2239 32.2798 57.176 36.86 56.0334 41.4051C55.3595 44.0857 55.0844 46.8359 54.6129 49.5538C54.5153 50.1166 54.2765 53.5098 54.2765 50.8248C54.2765 45.8533 54.2765 40.8818 54.2765 35.9104C54.2765 34.253 54.284 39.2265 54.2018 40.8818C54.0263 44.4138 54.0071 47.9909 53.5289 51.4976C53.4715 51.9185 53.2359 56.6348 52.7627 56.8241C52.5564 56.9067 52.5944 53.7679 52.5944 53.703C52.5944 49.043 52.5944 44.383 52.5944 39.7231C52.5944 38.3186 52.4189 36.7846 52.8561 35.4244C53.1688 34.4516 53.5606 35.5027 53.585 36.0038C53.9006 42.4743 53.1331 48.9075 52.3328 55.3103C52.2717 55.7994 52.0183 57.214 51.9216 56.7307C51.4046 54.1455 51.8992 50.8726 51.9403 48.2643C52.0221 43.0687 52.7308 38.2332 54.8933 33.462C56.8847 29.0683 59.6135 25.14 62.1636 21.0707C62.4278 20.6491 68.2633 12.1508 68.6676 12.9594C69.1299 13.884 67.5932 16.1175 67.2472 16.8095C65.7598 19.7842 64.1636 22.6981 62.7056 25.6871C62.2447 26.6318 61.4412 27.6102 61.7337 25.8553C62.1879 23.1304 64.2852 20.3521 65.7894 18.1177C68.5062 14.082 72.5773 9.94412 77.134 7.95054C79.4625 6.93184 72.2776 9.57622 69.7516 9.85689C69.3351 9.90316 67.1452 10.477 66.7986 10.0438C66.3545 9.48866 70.2127 8.50597 70.4244 8.45516C72.7113 7.90631 74.96 7.48531 77.1527 6.75439" stroke="#613D25" stroke-width="2" stroke-linecap="round"/>
<path d="M74.7974 5.07201C78.3358 5.07201 81.875 5.04673 85.4132 5.07201C86.9267 5.08282 88.3649 5.07654 89.7492 5.74484C89.9483 5.84096 91.9739 6.64455 91.0201 6.73539C89.8949 6.84256 88.9848 6.46742 87.955 6.08125C85.54 5.17563 83.0037 4.33737 80.4417 3.988C79.7992 3.90039 78.027 3.38623 77.4327 3.78242C76.8324 4.18262 80.3121 6.12859 80.5165 6.23077C82.7638 7.35444 85.4327 7.92217 87.0766 9.93133C87.3089 10.2153 87.5535 10.4031 87.5812 10.7911C87.651 11.7685 87.2055 8.86718 86.9831 7.91284C86.7385 6.86311 85.5718 2.61999 87.8055 4.34311C91.6174 7.28374 93.3003 13.3612 93.3003 17.9679C93.3003 20.4381 93.3003 18.2048 93.3003 16.996C93.3003 12.8086 93.3003 20.2191 93.3003 20.9956C93.3003 23.2947 93.2787 25.5911 92.9638 27.8735C92.6325 30.2761 92.6274 28.0058 92.6274 27.0885C92.6274 26.059 92.9638 19.9517 92.9638 23.7057C92.9638 27.7211 92.5975 31.4609 91.506 35.3307C91.087 36.8163 91.3049 35.4115 91.3565 34.7513C91.6262 31.3049 92.5657 28.0938 93.4872 24.771C93.901 23.2788 94.945 18.8117 94.945 20.3602C94.945 22.9337 93.6285 25.6649 92.7769 28.023C90.1367 35.3344 87.6716 42.6379 84.404 49.7031C84.0427 50.4841 83.6342 51.237 83.2078 51.9832C82.7294 52.8204 84.1754 50.3065 84.7777 49.5535C85.0564 49.2053 86.0634 48.4854 85.9552 48.9181C85.5491 50.5426 83.3551 52.5559 82.3294 53.8709C81.1608 55.369 79.8872 56.7804 78.5728 58.1508C78.2957 58.4396 77.7102 59.5594 77.8999 58.6741C78.0967 57.7561 78.3814 56.9088 78.8157 56.0762C78.8317 56.0457 79.4789 54.7818 79.4512 54.768C79.3595 54.7221 74.18 59.2435 73.321 59.7207C71.6102 60.6711 73.5029 59.4557 74.0499 58.9732C77.4373 55.9842 80.832 52.8554 83.918 49.5535C89.3438 43.7484 91.5095 35.4381 91.6182 27.6118C91.6554 24.931 91.6886 22.2904 91.8798 19.6126C92.0086 17.8105 92.6487 14.0843 91.5995 12.5105C91.3554 12.1444 89.5376 10.7575 89.6745 11.2022C89.8204 11.6764 91.123 14.1803 90.5529 13.9309C88.0046 12.816 85.8629 11.6942 83.077 11.1462C80.5017 10.6395 75.6619 9.86325 73.377 11.6134C70.8011 13.5865 68.4824 16.5383 66.4431 19.0145C64.8685 20.9266 63.1197 23.0449 62.0137 25.2569" stroke="#613D25" stroke-width="2" stroke-linecap="round"/>
<path d="M69.0788 10.4546C67.8221 10.8316 66.8206 13.6809 66.238 14.6411C63.4919 19.1669 60.4581 23.5076 57.7528 28.0603C56.0364 30.9488 54.1861 33.8745 53.0804 37.0687C52.641 38.3381 53.3783 36.0579 53.4355 35.8352C54.103 33.2395 55.6222 25.4175 55.6222 28.0977C55.6222 30.1474 54.9686 32.3008 54.613 34.3027C53.8008 38.8741 52.873 43.5648 52.6318 48.2078C52.4912 50.9146 51.8894 54.7403 53.1925 57.2163C53.7495 58.2745 54.7038 58.5167 55.1176 59.7581C56.0956 62.6921 54.0372 60.6912 53.2673 59.2348C52.6369 58.042 51.9268 56.8902 51.3236 55.6837C50.7458 54.5281 50.9124 54.6906 50.9124 55.9641C50.9124 60.2553 51.0114 64.5484 51.7347 68.7852C52.4528 72.991 50.9181 69.5178 49.9031 67.7199C47.8415 64.0678 48.9321 59.5373 49.0808 55.4594C49.3529 47.9953 49.5359 40.3925 50.6507 32.9944C50.7983 32.0152 51.1515 30.8311 51.66 29.9667C51.7422 29.827 51.9194 32.9248 51.9029 33.3682C51.741 37.74 50.3851 42.0089 50.2396 46.3762C50.2058 47.3886 50.2291 46.438 50.2396 45.9277C50.3578 40.1339 52.331 34.2016 54.7999 29.0135C56.4635 25.5175 58.6545 22.1058 61.4721 19.4257C62.0956 18.8326 63.3338 18.244 63.6962 17.5193" stroke="#613D25" stroke-width="2" stroke-linecap="round"/>
<path d="M98.0108 110.033C98.0108 109.093 98.0108 108.152 98.0108 107.211C98.0108 106.038 97.8411 106.839 97.1697 107.51C96.5438 108.136 95.9321 108.748 95.3195 109.36C94.3135 110.366 95.752 107.939 96.1418 107.604C98.0089 105.998 100.33 104.171 101.693 102.128C102.422 101.034 104.894 99.9727 105.935 98.9316C107.08 97.7864 110.172 95.2737 106.926 97.2495C106.245 97.6639 104.124 98.7531 104.776 98.2962C108.466 95.7137 112.269 93.7801 116.551 92.3528C117.531 92.0262 119.264 91.2351 120.364 91.5492C121.511 91.8769 117.661 93.4954 117.523 93.549C116.88 93.7988 115.832 94.4087 115.131 94.4087C114.304 94.4087 116.657 93.769 117.448 93.5303C118.901 93.0917 120.366 92.5713 121.896 92.5397C122.995 92.5171 124.311 92.7612 125.391 92.521C125.657 92.462 124.938 91.6437 124.924 91.2688C124.897 90.5457 124.87 89.849 125.335 89.2503C125.377 89.1965 124.047 89.1358 123.784 89.1943C122.36 89.5106 126.691 89.6432 128.045 90.1848C128.529 90.3782 130.487 91.4061 130.381 91.1941C130.214 90.8592 130.027 89.8484 129.634 89.8484C128.737 89.8484 125.861 92.5397 127.447 92.5397C130.919 92.5397 127.105 96.119 126.083 97.4364C124.538 99.427 122.105 100.99 120.775 103.081C120.431 103.621 122.688 102.461 122.831 102.371C124.474 101.325 125.244 99.0722 126.344 97.5112C127.828 95.4071 129.297 92.8176 129.297 90.1848" stroke="#613D25" stroke-width="2" stroke-linecap="round"/>
<path d="M42.839 57.5526C42.7159 56.9984 42.0221 56.4343 41.755 55.8705C41.1837 54.6645 41.628 59.1309 41.6616 59.5337C41.854 61.843 42.1662 64.1678 42.1662 66.4863C42.1662 68.5552 41.9411 62.35 41.6616 60.3C41.4227 58.5482 41.1569 56.8549 41.1569 55.0856C41.1569 52.8981 39.4073 59.0953 38.5404 61.1037C38.3327 61.5848 36.1107 67.2722 36.1107 64.9537C36.1107 61.3967 36.6136 72.0603 37.1947 75.5695C37.3142 76.2911 38.4615 81.6121 38.7273 78.1861C39.1622 72.5808 39.1385 66.804 39.1385 61.1784C39.1385 60.422 39.0374 58.2175 39.3254 58.917C40.2425 61.1444 39.8041 64.4021 39.8113 66.7106C39.8387 75.5257 39.8113 84.3413 39.8113 93.1565C39.8113 94.3837 39.8631 99.3491 39.8113 95.3058C39.806 94.8913 39.7061 90.6741 38.7086 91.7548C37.0893 93.509 35.9902 96.0257 34.7837 98.0532C33.1227 100.845 31.4362 103.611 29.6067 106.295C29.1611 106.949 29.0865 108.348 28.2984 108.277C27.6312 108.216 28.3528 103.351 28.4292 102.95C29.1026 99.4146 30.1659 96.0073 31.214 92.5771C31.5718 91.4061 31.8363 89.5626 32.7466 88.6523C33.1445 88.2544 33.8848 88.7987 34.2604 89.0074C35.539 89.7177 38.1696 78.5176 38.4282 77.5132C38.768 76.194 39.0994 74.8794 39.1385 73.5136C39.1467 73.2235 38.5909 77.4447 38.5778 77.5319C37.4447 85.0314 35.5982 92.3492 34.167 99.7914C34.1066 100.105 33.2013 103.884 33.1017 103.436C32.3459 100.035 33.1233 95.8614 33.083 92.3529C33.0742 91.5892 33.0164 90.3076 32.5971 92.1286C31.6948 96.0468 31.2073 100.086 30.5786 104.053C29.8842 108.433 29.2712 112.821 28.6348 117.21C28.4472 118.504 28.0368 119.875 28.0368 121.191C28.0368 124.437 28.0114 114.699 28.0368 111.454C28.056 108.989 28.274 111.801 28.2984 112.313C28.4397 115.28 28.3732 118.259 28.3732 121.228C28.3732 121.742 28.6572 127.188 27.962 125.396C27.0604 123.073 26.6175 120.231 25.1959 118.163C24.7467 117.51 22.7969 114.212 24.411 114.481C25.2687 114.624 26.362 114.529 27.177 114.762C27.4847 114.85 25.7776 121.776 25.6632 122.331C25.2204 124.478 24.6695 126.6 24.2054 128.742C24.1575 128.963 23.874 131.571 23.6634 131.676C23.4061 131.805 23.6132 131.103 23.5886 130.816C23.346 127.986 23.6212 131.229 23.327 127.863C23.1467 125.802 22.9905 123.747 22.9905 121.677C22.9905 121.529 22.9905 119.525 22.9905 120.649C22.9905 125.708 22.9905 130.766 22.9905 135.825C22.9905 141.071 22.7108 146.491 23.4017 151.711C23.7514 154.354 23.9998 147.937 23.9998 147.637C23.9998 145.594 23.9998 143.55 23.9998 141.507C23.9998 140.753 23.9676 139.593 23.9998 141.17C24.1044 146.299 25.3665 151.285 26.1491 156.328C26.191 156.598 26.4142 158.802 26.336 156.926C26.2459 154.764 25.9038 152.656 25.495 150.534C24.7272 146.549 23.6634 142.344 23.6634 138.255C23.6634 134.375 25.3637 145.826 26.1865 149.618C26.5794 151.429 27.1236 153.205 27.4948 155.019C27.719 156.116 27.7991 156.702 27.6256 155.113C26.7701 147.282 22.9905 139.841 22.9905 131.9C22.9905 129.744 22.0246 124.519 23.4017 122.892C24.5207 121.569 26.0714 126.37 26.093 126.443C28.4253 134.364 27.8775 144.005 26.0183 151.973C25.9486 152.272 24.0282 159.296 24.7474 159.075C25.2205 158.93 25.52 158.51 25.9435 158.29C27.0509 157.714 25.5043 160.759 25.0838 161.935C23.1057 167.463 21.2599 173.261 20.7104 179.148C20.6484 179.812 21.5411 178.083 21.7944 177.466C23.6166 173.026 25.0489 168.393 26.093 163.71C26.7315 160.847 27.145 157.942 27.663 155.057C28.3359 151.308 27.0491 157.72 26.9528 158.103C25.6399 163.333 24.1664 168.628 22.1869 173.653C21.2919 175.925 21.6426 169.732 21.6262 169.149C21.6126 168.666 21.7232 163.739 20.6356 163.86C19.0777 164.033 20.0454 175.857 20.1871 177.223C20.4875 180.117 22.6787 188.577 22.3177 185.689C22.153 184.372 21.5793 183.063 21.1963 181.802C20.8689 180.724 20.7675 179.222 20.1497 178.251C19.8205 177.734 19.9652 179.47 19.9815 180.082C20.0736 183.537 20.4552 186.947 20.972 190.362C21.0875 191.125 22.7138 198.09 20.7478 194.866C19.3583 192.587 18.4589 190.12 17.2715 187.745" stroke="#613D25" stroke-width="2" stroke-linecap="round"/>
<path d="M42.5009 170.924C41.626 171.099 44.0121 171.89 44.6689 172.494C46.8929 174.539 48.0372 177.067 48.7433 179.97C48.8392 180.365 49.8334 187.123 49.1544 187.259C48.2037 187.449 46.1037 185.877 45.4165 185.465C43.8676 184.536 42.1701 183.421 41.3048 181.764C39.9998 179.266 41.4158 176.191 39.9778 173.634C39.3287 172.481 42.2548 175.019 43.2298 175.915C45.8581 178.329 48.3762 180.995 50.145 184.119C50.6078 184.937 52.4524 190.936 49.8833 190.679C48.2592 190.517 47.461 187.007 47.0238 185.876C46.2411 183.852 45.3742 181.881 44.6876 179.821C44.4658 179.155 44.2415 178.505 44.183 177.802C44.0667 176.407 44.4231 180.592 44.5194 181.989C44.8398 186.635 45.0978 191.386 44.781 196.043C44.6639 197.766 44.2394 199.607 43.2485 201.052C42.8332 201.658 44.3249 199.109 44.3699 199.034C46.8101 194.925 51.2337 187.762 47.9583 182.923C46.5462 180.837 44.6998 179.045 43.2485 176.98C42.0588 175.287 41.268 172.119 40.688 170.121C40.5083 169.502 40.0138 167.938 40.2208 167.317C40.4193 166.722 43.1107 169.962 43.3232 170.233C44.4552 171.674 47.1561 176.454 45.9959 175.036C44.3754 173.056 43.8466 169.607 43.8466 167.13C43.8466 166.307 44.183 168.755 44.183 169.579" stroke="#613D25" stroke-width="2" stroke-linecap="round"/>
<path d="M20.9719 187.409C20.9719 196.099 20.9719 204.79 20.9719 213.481C20.9719 218.733 20.3919 192.506 20.9719 197.725C21.196 199.742 21.3358 201.773 21.6447 203.781C21.7699 204.595 21.9438 204.099 21.9438 203.538C21.9438 201.679 21.5056 199.844 20.9532 198.081C20.7112 197.308 19.0909 191.768 18.9721 195.333C18.8466 199.099 18.8923 202.895 19.3085 206.64C19.3951 207.42 19.6842 209.713 19.8131 208.939C19.9791 207.943 19.3187 206.979 18.9908 206.024C18.2944 203.995 17.2777 201.295 16.4864 199.295C16.1311 198.398 15.9341 197.392 15.3276 196.641C15.178 196.456 15.2558 197.114 15.2528 197.352C15.2305 199.119 15.2261 200.893 15.2528 202.66C15.3198 207.077 15.7916 212.025 17.9815 215.967C19.0021 217.804 21.2786 219.96 21.6073 222.097C22.0193 224.774 21.5046 227.864 21.2335 230.507C21.0238 232.552 20.7056 234.581 20.6355 236.637C20.6331 236.707 20.5446 238.741 20.2991 238.619C19.5017 238.22 19.3593 233.871 19.2898 233.311C18.8412 229.695 18.6299 226.076 18.617 222.433C18.5987 217.303 19.4767 213.126 20.9719 208.266" stroke="#613D25" stroke-width="2" stroke-linecap="round"/>
<path d="M40.4844 149.394C41.6047 149.145 42.4113 146.041 42.7645 145.17C43.4339 143.52 44.1849 141.453 44.1849 139.638C44.1849 137.641 43.8485 142.339 43.8485 143.002C43.8485 147.531 43.8485 133.944 43.8485 129.415C43.8485 128.992 44.3634 131.932 44.5214 132.573C44.8967 134.096 44.7937 136.443 45.6988 137.75C46.3419 138.679 46.5073 134.025 46.5212 133.582C46.5953 131.209 46.5786 128.565 45.9418 126.256C45.6202 125.09 46.0527 126.332 46.1287 126.854C46.4451 129.03 46.2371 131.75 45.2129 133.713C43.3765 137.233 45.8105 125.744 46.8763 121.92C47.3737 120.135 47.2127 118.26 47.2127 116.425" stroke="#613D25" stroke-width="2" stroke-linecap="round"/>
<path d="M45.8665 105.66C45.8665 107.398 45.8665 109.136 45.8665 110.875C45.8665 112.181 45.7063 112.866 45.1937 111.118C44.7986 109.77 44.6383 108.462 45.0441 110.781C45.5352 113.587 45.8665 116.25 45.8665 119.098C45.8665 124.242 44.8572 129.277 44.8572 134.424C44.8572 136.189 45.3698 138.962 44.7077 140.647C44.0061 142.433 41.1122 144.085 39.4746 145.021" stroke="#613D25" stroke-width="2" stroke-linecap="round"/>
<path d="M40.4844 140.984V147.039" stroke="#613D25" stroke-width="2" stroke-linecap="round"/>
<path d="M36.4147 203.447C35.0914 209.534 33.5534 216.092 31.138 221.829C29.5802 225.529 32.8857 213.99 33.9061 210.107C35.5114 204 35.2879 197.697 36.7607 191.596C37.8777 186.968 31.1362 200.699 30.619 201.76C28.4602 206.188 26.753 212.847 23.3528 216.509C21.8632 218.113 22.4012 213.035 22.4012 212.356C22.4012 210.356 21.6227 199.88 21.6227 207.426C21.6227 210.46 20.3657 216.72 21.7524 219.493C22.2436 220.475 25.7107 215.833 26.1208 215.125C29.741 208.872 22.7222 229.184 20.4981 236.058C20.2682 236.769 19.3068 242.007 19.6331 241.681C21.395 239.919 22.3544 236.668 24.7368 235.539C27.4111 234.273 25.3546 247.299 25.2558 247.779C23.3586 257.007 19.459 265.646 17.038 274.725C13.7916 286.899 22.6988 250.131 26.6831 238.178C27.7355 235.02 28.2426 231.617 29.408 228.533C31.3695 223.34 31.8789 227.297 31.3975 231.041C30.1136 241.027 27.26 250.778 25.9478 260.798C25.8607 261.464 25.0664 273.523 25.0828 273.514C25.9492 273.055 26.0807 270.018 26.4669 270.919C27.4875 273.301 24.8387 279.567 24.0448 281.905C23.6811 282.976 21.4696 289.48 21.6659 285.062C22.1677 273.773 24.5616 262.574 27.2454 251.629C29.0136 244.418 30.4971 232.806 35.6362 226.932C38.1468 224.063 37.2474 231.605 37.1932 232.512C36.2513 248.288 28.532 263.18 23.5258 277.926C18.3606 293.14 16.9515 341.742 16.9515 325.676" stroke="#613D25" stroke-width="2" stroke-linecap="round"/>
<path d="M24.7352 278.964C24.5455 278.016 23.7996 280.662 23.4376 281.559C20.7352 288.254 18.6388 295.126 16.6471 302.06C15.3768 306.483 14.2467 310.884 13.4898 315.425C13.3703 316.142 11.9649 324.211 13.8358 319.534C14.9244 316.812 15.5376 313.909 16.1714 311.057C16.2726 310.601 17.2018 305.083 16.8634 308.721C15.5898 322.412 13.3325 336.363 11.1109 349.94C10.8546 351.506 11.4063 355.278 9.9864 354.568C8.85038 354 12.172 340.055 12.2787 339.43C14.6775 325.373 15.8926 311.37 16.9066 297.173C17.0534 295.118 16.456 296.572 16.1281 297.692C14.7658 302.346 14.3923 307.365 14.0088 312.181C13.8296 314.431 12.4321 323.027 14.6143 324.118" stroke="#613D25" stroke-width="2" stroke-linecap="round"/>
<path d="M82.3477 227.581C82.3477 227.847 82.2544 227.056 82.1747 226.802C81.4523 224.504 79.5065 222.518 78.1091 220.617C74.2206 215.329 73.0054 217.809 73.0054 223.169C73.0054 231.516 72.8816 240.093 74.649 248.298C75.7907 253.599 78.7226 259.268 79.1904 264.647C79.4093 267.165 76.0838 271.367 77.0711 273.341C79.2479 277.695 90.8807 268.943 94.2852 269.794C97.4485 270.585 83.5857 295.259 82.5208 297.389C80.2349 301.961 78.427 306.765 76.1195 311.316C74.8045 313.909 74.0511 314.209 72.9189 311.316C66.3377 294.497 59.0166 277.876 59.8137 259.544C59.8517 258.669 60.5355 248.673 63.0576 251.456C66.388 255.131 68.2347 260.951 70.4968 265.253C75.0993 274.005 80.2246 282.311 86.4134 290.036C88.1271 292.175 98.9087 307.268 97.7885 297C96.9455 289.271 93.2516 280.79 88.23 274.812C83.6733 269.387 84.3686 283.094 83.9048 285.797C82.4201 294.451 80.6242 303.048 78.9309 311.662C78.1611 315.578 77.3426 327.19 76.2925 323.34C74.9977 318.592 76.1652 311.746 76.2925 306.991C76.6364 294.154 77.4644 281.339 77.6333 268.497C77.7331 260.914 77.6766 238.163 77.6766 245.747C77.6766 254.597 78.2183 263.335 79.5796 272.087C80.4085 277.415 80.0232 271.651 80.0122 269.794C79.9716 262.986 79.8565 256.191 78.4119 249.509C77.4087 244.87 74.5625 231.052 74.5625 235.799C74.5625 257.225 79.3517 278.572 79.8392 300.07C80.2939 320.123 81.8559 341.558 78.8876 361.488C78.645 363.117 78.2822 365.84 78.6281 362.266C79.0564 357.84 79.542 353.442 80.7907 349.161C82.8021 342.265 89.5418 358.099 89.7005 358.374C89.8497 358.632 94.7786 367.555 96.1882 369.273C97.8213 371.263 95.0742 364.222 94.1122 361.834C90.2915 352.349 84.9215 344.224 79.7094 335.537C78.2191 333.053 80.3109 342.065 80.6177 343.063C80.7107 343.365 81.5692 346.874 81.5692 345.96C81.5692 341.102 81.5917 336.243 81.5692 331.385C81.5269 322.236 80.0398 312.793 80.8339 303.66C81.055 301.118 82.9288 303.911 83.4723 304.742C86.2295 308.956 88.4134 313.769 90.0033 318.539C90.2582 319.304 93.2476 330.693 91.6901 330.347C89.7377 329.913 88.9119 323.663 88.6625 322.345C87.4196 315.776 87.7974 308.969 87.7974 302.32" stroke="#613D25" stroke-width="2" stroke-linecap="round"/>
<path d="M37.1927 250.937C33.851 255.021 32.5691 260.874 30.7915 265.729C30.0078 267.869 29.0465 270.216 29.4074 272.562C29.8505 275.442 35.4194 269.328 35.4626 269.275C39.4936 264.344 42.6584 258.926 46.362 253.791C47.6617 251.989 49.0156 250.804 48.6976 253.878C47.5039 265.417 43.0785 276.752 39.7878 287.787C37.3164 296.074 34.8973 304.429 32.089 312.613C29.7066 319.556 29.6366 308.123 26.1203 307.164C18.7639 305.157 13.053 321.048 11.2418 326.281C8.89324 333.065 15.1415 319.382 15.3939 318.841C18.4476 312.298 20.4107 305.854 22.5737 299.032C23.6736 295.563 24.2023 294.121 23.0062 298.773C21.0863 306.239 19.6302 313.373 18.508 321.004" stroke="#613D25" stroke-width="2" stroke-linecap="round"/>
<path d="M114.48 86.354C112.617 86.354 100.61 86.7841 106.81 85.7507C112.125 84.8649 103.675 84.8027 102.157 84.8027C100.2 84.8027 97.717 86.2947 96.2101 87.5605C95.2126 88.3984 85.7771 97.4308 91.2115 94.7136C93.4057 93.6165 100.394 88.6809 100.174 88.6809C97.6371 88.6809 95.0897 88.9243 95.0897 85.9662C95.0897 82.2036 89.5241 89.2986 89.057 90.0598C88.7228 90.6045 86.8836 93.238 87.5058 93.9379C88.1747 94.6905 89.2111 92.3132 88.7123 93.2485C86.8236 96.7897 84.6034 100.146 82.7658 103.719C82.5151 104.207 80.4389 108.988 80.4389 107.899C80.4389 106.301 85.2329 95.1981 81.1284 102.039C79.2575 105.157 77.165 108.018 75.0957 111.002C74.8883 111.301 72.3161 115.538 74.32 114.277C77.4181 112.326 85.2 104.59 82.9382 107.468C79.878 111.363 75.58 115.878 74.1908 120.74C74.1087 121.027 74.1477 118.361 74.1477 121.3C74.1477 125.624 74.1477 129.947 74.1477 134.271C74.1477 139.499 74.1477 126.844 74.1477 125.222C74.1477 121.759 71.2824 124.561 70.2695 125.911" stroke="#613D25" stroke-width="2" stroke-linecap="round"/>
<path d="M71.0454 122.033C70.7658 129.616 70.2698 152.373 70.2698 144.785C70.2698 141.366 70.2698 137.947 70.2698 134.529C70.2698 130.377 68.8382 140.077 68.7616 141.38C68.7105 142.249 68.7612 147.877 68.7185 146.681C68.6737 145.425 67.8441 128.208 69.8389 129.918C72.2219 131.961 71.7884 142.767 71.821 145.733C71.866 149.825 71.821 153.92 71.821 158.013C71.821 160.13 73.3723 153.883 73.3723 161.331C73.3723 166.467 73.2372 171.623 73.3723 176.758C73.4503 179.723 75.4 174.189 75.6561 173.698C76.6951 171.707 76.1242 171.355 74.1479 172.061C71.799 172.9 72.3445 165.806 71.9934 164.089C71.2475 160.443 70.4127 165.426 70.3129 166.675C70.1125 169.178 70.0623 170.69 71.821 172.449" stroke="#613D25" stroke-width="2" stroke-linecap="round"/>
<path d="M71.8218 172.449C71.5616 174.53 64.7595 172.742 63.6777 172.319C61.5076 171.473 59.648 170.05 57.5588 169.045C57.4451 168.99 54.2853 167.759 54.327 167.967C54.7431 170.048 59.53 172.028 61.3077 172.837C63.4368 173.804 57.4784 170.545 56.6539 169.863C54.983 168.482 52.4326 166.244 56.0507 166.244C61.3121 166.244 64.6432 166.168 66.5648 171.845C66.8055 172.557 68.2874 180.193 69.6673 179.86C71.0814 179.519 72.3767 176.066 72.8991 174.905C74.2262 171.956 71.495 175.579 71.0462 176.327" stroke="#613D25" stroke-width="2" stroke-linecap="round"/>
<path d="M82.6806 209.679C87.6065 203.858 92.4759 194.355 92.7638 186.583C92.7729 186.338 93.2378 197.872 91.6003 197.872C91.2762 197.872 89.22 183.903 88.0669 182.101C86.543 179.72 85.0741 177.586 84.0595 174.948C83.5015 173.498 86.744 179.054 87.3344 180.033C87.7922 180.792 91.902 187.175 91.902 184.988C91.902 180.752 89.5208 177.584 87.6791 174C85.7893 170.323 83.5701 166.902 81.6033 163.271C81.0946 162.332 80.7344 159.878 79.9659 159.263C79.4029 158.813 79.5432 157.287 80.3537 158.057C83.6129 161.153 85.5373 165.218 86.5587 169.519C87.8499 174.955 88.11 179.656 88.11 185.204C88.11 187.081 88.385 189.225 87.9376 191.064C87.6626 192.195 85.6207 195.042 85.9124 196.063C86.3841 197.714 88.9751 194.618 86.3864 198.217C84.9235 200.251 81.0622 206.376 81.474 203.905C81.7081 202.501 90.3251 193.287 89.4889 193.391C87.7536 193.608 85.9555 199.018 85.9555 197.269C85.9555 193.476 87.8832 189.24 88.0669 185.29C88.2099 182.215 88.6316 179.52 86.3002 177.275C85.6328 176.632 83.158 175.56 82.3359 176.5C78.2152 181.209 89.5877 196.898 91.3849 201.751C92.723 205.363 81.9052 209.856 80.0951 207.223C77.6244 203.629 83.8478 195.334 82.6806 194.167" stroke="#613D25" stroke-width="2" stroke-linecap="round"/>
<path d="M71.821 202.698C71.821 205.284 71.821 207.869 71.821 210.455C71.821 210.546 71.983 215.545 71.9934 215.539C73.8724 214.6 74.0649 203.439 74.3203 201.32C75.4247 192.153 73.421 201.027 72.2088 204.982C69.9574 212.329 69.4941 219.777 69.4941 227.432C69.4941 232.5 71.7289 234.749 74.4496 238.679C74.8177 239.211 75.8015 241.668 76.8626 240.489C78.434 238.743 77.9416 233.97 77.8968 232C77.7714 226.482 76.7097 221.257 74.9236 216.056C74.0929 213.638 70.8604 207.158 72.9414 208.645C77.7655 212.091 80.5462 219.987 82.5075 225.278C82.7498 225.932 85.0067 233.225 85.0067 229.759C85.0067 225.149 84.3487 211.37 85.0498 215.927C86.3926 224.655 87.8852 233.174 88.0662 242.04C88.1562 246.453 88.2085 250.899 88.0662 255.312C88.0599 255.507 87.9275 262.436 86.6011 260.526C85.4493 258.867 81.7929 247.439 79.9651 247.642C78.7963 247.772 79.9279 262.96 79.9651 263.93C80.3337 273.514 80.353 283.083 80.353 292.672" stroke="#613D25" stroke-width="2" stroke-linecap="round"/>
<path d="M89.6601 319.043C89.6601 318.916 89.6601 317.657 89.6601 318.353C89.6601 323.74 89.6601 329.126 89.6601 334.512C89.6601 343.826 89.7078 353.1 88.1088 362.306C87.909 363.456 87.0836 372.565 85.4372 373.035C85.0257 373.153 85.0411 364.401 85.0063 363.426C84.9092 360.708 77.8033 368.13 77.25 368.683" stroke="#613D25" stroke-width="2" stroke-linecap="round"/>
<path d="M22.1803 255.441C22.1803 251.567 21.4047 246.737 21.4047 254.579C21.4047 262.996 21.4047 271.413 21.4047 279.83C21.4047 284.186 21.5121 282.919 21.2323 279.313C20.8113 273.886 18.3931 257.971 17.6989 263.37C16.1475 275.436 19.7027 288.81 21.8356 300.6C22.6722 305.225 23.4523 309.859 24.3349 314.475C24.5163 315.424 24.7497 319.539 25.8861 320.249C26.6841 320.748 25.2242 318.431 25.2828 317.491C25.6053 312.333 29.3017 327.026 31.6603 331.625C32.1313 332.544 37.3712 341.587 34.2457 337.313C25.6137 325.51 20.0977 308.998 18.1298 294.567C16.7456 284.416 22.4846 314.591 24.8519 324.558C25.0827 325.53 27.8348 333.015 27.4374 330.763C26.7349 326.783 25.2164 322.189 22.3527 319.215C20.931 317.739 21.4047 328.977 21.4047 330.677" stroke="#613D25" stroke-width="2" stroke-linecap="round"/>
<path d="M26.0588 311.287C25.6578 323.719 22.8607 336.902 20.0261 349.034C19.7801 350.087 19.0782 353.218 19.0782 352.136C19.0782 346.7 19.0824 341.273 19.5091 335.848C19.8522 331.486 20.3001 327.097 20.8018 322.749C20.9932 321.09 21.9046 318.02 20.3709 321.715C17.3646 328.957 15.3746 336.533 12.8731 343.949C11.8888 346.868 10.6833 349.68 9.51205 352.524C9.11058 353.499 8.34496 356.458 8.21933 355.411C7.59959 350.247 10.9765 335.16 8.65024 339.813C5.49108 346.131 5.36236 353.268 2.83301 359.591C2.07016 361.498 2.78992 355.483 2.78992 353.429C2.78992 346.736 2.78992 340.042 2.78992 333.349C2.78992 327.881 2.78992 334.689 2.78992 336.107C2.78992 346.204 2.78992 356.302 2.78992 366.399C2.78992 369.356 2.55588 378.129 6.28025 371.269C6.77798 370.352 10.4772 360.16 10.5462 365.064C10.5979 368.735 8.40846 380.669 11.3219 383.42C13.3437 385.33 16.2437 370.363 17.4838 369.33C20.3845 366.912 16.7529 377.82 19.4229 380.49C19.5887 380.656 19.8572 372.47 19.8538 372.13C19.7614 362.987 18.41 353.945 18.3025 344.811C18.251 340.432 18.3025 336.048 18.3025 331.668C18.3025 329.31 16.7668 336.136 16.2342 338.434C13.4575 350.41 10.6954 362.406 8.26242 374.457C6.32627 384.048 5.16526 393.626 5.11681 403.414C5.10028 406.754 3.94349 412.27 7.4437 413.67" stroke="#613D25" stroke-width="2" stroke-linecap="round"/>
<path d="M40.0196 660.32C40.0196 654.79 40.0196 671.38 40.0196 676.91C40.0196 681.636 40.0196 667.459 40.0196 662.733C40.0196 657.435 39.244 659.71 39.244 663.38C39.244 665.324 40.6645 671.093 43.4669 671.093C44.0239 671.093 43.7844 670.376 43.5531 670.145C42.4248 669.017 44.6702 673.148 45.4491 674.54C46.9363 677.199 47.472 679.07 43.2945 677.987C40.5176 677.267 45.0287 680.276 45.5352 680.53C50.0986 682.811 55.4557 684.968 59.6258 687.855C60.8304 688.689 54.6716 685.701 53.5501 685.14C49.7627 683.247 58.4562 682.393 59.8844 681.909C65.9823 679.841 70.8741 676.421 75.5263 672.127C79.8829 668.105 69.6576 682.488 65.9602 687.123C65.6311 687.535 59.8725 694.568 59.4535 691.216C58.8005 685.992 63.8595 685.01 67.4683 682.813C72.839 679.544 64.428 679.372 61.7373 678.591C53.5723 676.22 47.4127 671.427 40.192 667.301C40.0964 667.246 43.7083 676.47 44.2425 678.461C44.4177 679.114 44.9398 681.065 44.6734 680.443C43.7268 678.235 43.0574 675.917 42.3034 673.635C40.8453 669.222 39.244 664.986 39.244 660.32C39.244 654.859 39.0407 649.745 41.14 644.592C42.5929 641.026 43.1222 641.656 43.1222 645.411C43.1222 653.562 42.9234 661.738 43.1222 669.886C43.1331 670.333 44.5575 663.461 44.8027 662.432C46.2831 656.214 48.3844 650.134 50.2752 644.032C51.0401 641.563 51.6152 638.978 52.4297 636.534C52.7875 635.461 51.9828 638.847 51.2663 639.723C48.0479 643.657 47.5143 627.468 47.3881 626.149C46.6506 618.446 46.2247 610.83 46.2247 603.096C46.2247 599.087 47.431 611.042 48.5085 614.903C49.0411 616.811 51.6085 623.719 48.8101 618.695C45.3487 612.48 43.0503 605.139 39.244 599.218C38.2553 597.68 38.4684 606.988 38.4684 608.267C38.4684 610.052 38.6904 612.006 38.4684 613.782C38.4546 613.893 36.6388 608.693 36.5293 608.138C35.1191 600.978 34.0122 593.516 33.8146 586.204C33.7802 584.932 39.5651 590.213 40.7953 591.289" stroke="#613D25" stroke-width="2" stroke-linecap="round"/>
<path d="M40.7958 603.699C40.7958 591.146 40.7958 578.592 40.7958 566.038C40.7958 560.863 40.182 559.62 40.8389 564.875C40.8677 565.106 41.8075 567.226 42.1747 566.124C43.2398 562.929 41.0324 557.483 39.934 554.619C38.3556 550.504 36.0085 546.676 33.9875 542.769C33.3239 541.486 30.4954 535.081 31.0573 540.098C31.1818 541.209 32.2638 552.865 32.2638 546.389C32.2638 540.619 32.0107 534.901 31.4882 529.153C31.3513 527.647 28.8818 510.316 30.3679 509.891C30.8559 509.752 31.6491 509.768 32.0915 510.02C33.7704 510.98 30.0886 506.712 29.0751 505.065C25.6528 499.504 21.9828 493.94 19.0781 488.13" stroke="#613D25" stroke-width="2" stroke-linecap="round"/>
<path d="M25.2837 519.156C25.2837 523.824 25.3191 509.817 25.1545 505.151C24.629 490.264 22.5939 475.419 20.8023 460.639C20.2112 455.762 21.213 465.835 21.7934 467.447C22.8428 470.362 21.1807 467.698 20.1129 466.499C17.7459 463.84 15.702 460.648 12.9168 458.398C9.04277 455.269 9.77115 460.079 9.77115 462.966C9.77115 470.442 6.83391 448.269 6.23772 440.817C5.5721 432.497 4.46357 422.478 9.03861 415.006C11.7814 410.526 14.8579 406.488 17.0965 401.691C18.2847 399.145 17.5274 395.126 17.5274 392.383C17.5274 392.202 17.4771 388.469 17.1827 388.764C14.3416 391.605 12.9425 397.274 11.3224 400.829C8.25576 407.559 4.25664 414.526 2.79047 421.857C1.80018 426.809 7.60019 412.972 9.77115 408.413C10.7459 406.366 11.124 408.461 11.3224 409.792C12.4733 417.509 12.0347 425.462 12.1411 433.233C12.3219 446.427 13.0059 461.131 18.734 473.35C21.4384 479.12 22.9569 477.715 22.9569 482.701" stroke="#613D25" stroke-width="2" stroke-linecap="round"/>
<path d="M27.6109 511.399C27.6109 521.244 26.0539 531.899 30.5411 540.873C34.9135 549.618 32.1438 560.279 33.1265 569.614C33.6115 574.222 36.4394 577.932 37.9527 582.197C38.9123 584.901 38.4697 588.13 38.4697 590.944C38.4697 594.102 38.0582 597.064 39.6332 599.864C41.366 602.944 42.4279 605.65 43.1235 609.128" stroke="#613D25" stroke-width="2" stroke-linecap="round"/>
<path d="M47.7775 648.686C45.9383 649.605 47.0018 656.619 47.0018 658.166C47.0018 664.253 46.5507 670.544 47.1742 676.608C48.0274 684.908 56.6577 682.814 62.9453 682.814C67.39 682.814 63.8139 685.564 65.7893 687.898C66.2944 688.495 75.9663 673.511 76.7774 671.265C78.1678 667.415 78.8027 664.024 78.8027 659.976C78.8027 659.69 78.8027 658.198 78.8027 658.51C78.8027 662.092 78.001 666.655 76.3034 669.8C73.373 675.229 61.743 679.043 56.4818 675.057C53.85 673.064 50.5089 669.492 48.7255 666.698C44.9629 660.803 52.6925 657.953 57.4728 659.803C65.4059 662.874 61.9149 677.723 62.5575 684.149C62.6711 685.285 67.4265 681.808 63.4624 682.081C55.1251 682.656 45.3112 686.157 40.9692 676.091C37.7162 668.551 38.6123 656.397 39.4179 648.341C40.1287 641.233 40.6985 634.578 40.7968 627.399C40.8994 619.91 46.14 614.34 46.14 606.673C46.14 592.696 38.7183 579.203 28.3867 570.347" stroke="#613D25" stroke-width="2" stroke-linecap="round"/>
<path d="M123.79 663.423C123.79 666.295 123.79 669.168 123.79 672.041C123.79 675.904 123.79 664.313 123.79 660.449C123.79 658.077 123.012 661.666 122.971 661.828C121.919 665.948 121.043 670.138 120.084 674.281C119.096 678.548 118.023 684.791 119.955 688.975C121.916 693.224 122.063 689.597 120.601 687.079C119.019 684.355 113.545 677.847 116.12 685.571C117.481 689.654 119.437 693.589 121.463 697.378C125.045 704.078 122.204 698.891 119.868 695.266C119.485 694.671 116.978 690.574 115.775 689.622C115.408 689.331 115.275 690.495 115.344 690.957C115.626 692.859 116.704 695.004 117.757 696.602C121.859 702.827 132.404 699.559 137.32 696.43C138.76 695.514 146.507 693.139 144.645 695.266C142.169 698.097 124.906 706.243 125.341 697.55C125.498 694.411 133.391 691.916 135.596 690.699C138.7 688.986 138.833 690.536 138.354 693.672C137.186 701.321 135.344 700.788 131.403 707.245C128.633 711.783 122.303 706.237 121.463 701.475C119.43 689.957 119.997 690.884 121.851 679.021C123.206 670.344 123.102 662.828 119.481 654.201C116.059 646.049 118.452 666.523 117.412 651.271C116.869 643.305 116.033 635.482 116.033 627.485C116.033 622.212 116.588 626.094 118.36 628.95C118.589 629.318 121.791 636.185 122.842 634.552C123.744 633.149 122.46 629.263 122.152 628.088C120.683 622.49 118.496 617.091 116.852 611.541C116.165 609.223 114.482 605.938 114.482 603.484C114.482 602.498 114.207 607.005 113.534 606.284C106.984 599.267 103.33 586.867 100.305 578.017C99.1533 574.646 98.628 570.998 96.6426 568.02" stroke="#613D25" stroke-width="2" stroke-linecap="round"/>
<path d="M73.3735 474.169C73.3735 480.834 73.3735 487.498 73.3735 494.163C73.3735 496.277 72.4428 492.103 72.1669 491.405C70.5509 487.317 70.7167 497.526 70.6588 498.429C70.303 503.98 69.1139 511.082 70.7019 516.527C71.2704 518.476 71.7219 516.957 71.8653 516.096C72.2516 513.778 76.3857 519.807 76.5191 519.974C78.9304 522.988 81.5088 525.74 84.2323 528.463" stroke="#613D25" stroke-width="2" stroke-linecap="round"/>
<path d="M133.872 608.353C133.872 614.472 133.872 620.591 133.872 626.71C133.872 628.634 132.511 633.845 133.872 632.484C134.911 631.445 135.191 625.665 135.596 624.124C136.674 620.03 137.751 613.757 137.751 621.582C137.751 624.103 139.197 635.887 139.302 627.485C139.35 623.666 139.302 619.843 139.302 616.023C139.302 610.175 139.967 615.984 140.034 618.307C140.472 633.395 140.408 649.174 138.957 664.198C138.512 668.809 136.892 682.314 135.984 677.772C135.951 677.606 148.482 682.484 150.075 683.546C155.846 687.394 147.387 698.476 141.284 696.732C139.631 696.26 142.604 693.572 138.526 694.62C137.025 695.006 134.035 698.339 135.812 695.181C141.39 685.264 143.071 672.747 143.18 661.527C143.236 655.725 143.653 649.295 141.284 643.86C141.253 643.788 139.256 639.127 138.612 641.059C137.471 644.483 138.834 649.134 138.354 652.736C137.975 655.578 137.751 658.23 137.751 661.096" stroke="#613D25" stroke-width="2" stroke-linecap="round"/>
<path d="M138.525 621.538C137.17 607.993 110.751 574.704 117.755 586.377C118.564 587.725 119.86 589.114 120.513 590.513C121.672 592.998 116.384 586.847 114.739 584.653C109.595 577.795 105.63 570.063 101.467 562.591C101.173 562.064 95.5205 552.785 99.3983 555.739C101.49 557.333 102.896 559.68 104.655 561.6C104.86 561.823 101.485 554.967 100.82 553.8C99.9037 552.19 90.4997 528.549 91.6851 528.549C94.0687 528.549 97.831 535.865 97.5455 535.228C90.3395 519.153 88.7424 501.172 84.2305 484.252" stroke="#613D25" stroke-width="2" stroke-linecap="round"/>
<path d="M85.7813 452.451C87.5536 451.787 86.5699 444.668 86.5569 443.488C86.4727 435.829 85.5876 428.262 84.8333 420.65C84.547 417.762 84.2771 414.279 83.282 411.515C83.1083 411.033 84.1017 414.371 84.9625 415.609C89.8563 422.644 79.2814 415.274 77.0339 414.187C72.7182 412.098 73.3712 413.88 73.3712 408.24" stroke="#613D25" stroke-width="2" stroke-linecap="round"/>
<path d="M81.1295 383.42C81.1295 389.671 79.8096 393.917 76.2602 399.105C74.7671 401.287 79.4979 392.806 80.0953 391.866C82.2852 388.419 88.3264 377.842 86.8605 381.653C85.2817 385.758 82.9875 390.33 80.7848 394.107C80.3034 394.932 80.3505 388.272 80.1815 387.126C79.8085 384.598 76.785 381.071 75.3553 385.23C69.8044 401.378 73.7377 424.784 82.6807 439.093C84.8192 442.515 89.4099 439.609 86.0418 437.542C82.8161 435.562 73.7332 428.779 76.5619 431.294C77.8021 432.396 83.0281 437.441 82.336 439.265C81.7976 440.685 76.8271 441.924 75.657 442.411C73.1342 443.462 63.364 446.609 63.29 449.866C63.1819 454.621 66.1294 458.137 69.7967 460.854C71.7759 462.32 74.8198 463.024 77.2513 463.31C78.6526 463.475 78.027 466.894 78.027 467.964" stroke="#613D25" stroke-width="2" stroke-linecap="round"/>
<path d="M74.9248 471.067C74.7493 472.471 64.1108 461.777 62.8594 460.552C60.3216 458.07 57.7473 456.02 54.543 454.477C51.7997 453.156 53.2249 453.462 54.9739 455.468C57.6645 458.554 60.2635 461.734 62.6871 465.034C63.6 466.277 66.8643 469.867 63.3765 467.275C61.9935 466.247 41.7331 451.81 41.3572 453.313C40.6655 456.08 54.2797 457.676 55.2324 459.82C55.5846 460.612 49.0628 461.422 48.7257 461.5C42.7401 462.889 36.6059 465.25 31.4033 468.567C28.5208 470.405 31.4574 470.247 33.0839 469.817C36.1131 469.015 38.334 467.024 41.0987 465.723C45.4336 463.683 41.4662 471.671 40.7971 473.221C38.2069 479.22 42.8084 467.263 43.2963 466.24C46.6942 459.121 51.3959 449.743 57.7747 444.781C59.3436 443.561 66.4658 442.971 65.2725 443.316C53.9474 446.595 44.8515 454.578 37.7376 463.698C36.6694 465.068 35.3677 466.887 35.3677 468.74C35.3677 468.811 35.4048 469.177 35.54 468.826C38.4346 461.321 40.865 453.541 43.4687 445.945C45.0822 441.237 48.2963 431.903 50.0615 426.468C50.3922 425.45 51.6156 422.755 50.7079 423.322C48.9788 424.403 50.1181 432.606 50.1046 434.267C50.0809 437.191 51.2222 445.812 46.9159 446.203C41.747 446.673 39.9703 446.789 43.8996 442.368" stroke="#613D25" stroke-width="2" stroke-linecap="round"/>
<path d="M50.1029 352.395C48.2877 351.57 43.2142 348.77 41.3986 350.585C33.9645 358.019 34.1258 373.673 33.9009 383.119C33.5592 397.468 33.1743 412.115 33.8578 426.468C34.1188 431.949 36.2397 426.832 36.1416 424.011C35.8854 416.647 33.0493 409.206 25.7137 406.689C24.508 406.275 15.4314 403.042 18.2159 407.292C22.5151 413.854 30.0337 418.148 35.1936 424.011C39.2442 428.614 23.7195 424.856 21.9217 424.356C18.2554 423.336 14.6375 421.954 11.0629 420.65C11.0476 420.645 6.99328 418.961 7.35708 419.616C11.692 427.419 16.4849 435.144 20.8875 442.971C22.3578 445.585 25.7337 454.49 29.9796 453.959C30.7497 453.863 34.3706 451.92 34.418 452.02C35.8513 455.046 35.3813 460.378 39.675 461.414C42.9235 462.198 46.4599 456.692 47.776 454.778C51.7793 448.955 54.4219 442.482 55.8771 435.603C57.6646 427.153 54.7349 434.375 53.3778 438.145C52.0998 441.695 52.5964 445.469 51.6111 448.918C50.8414 451.612 50.5972 443.201 51.3956 440.515C53.3342 433.995 65.7331 454.104 70.0969 454.003C71.0557 453.98 75.0032 451.308 74.0613 451.072C69.3253 449.888 63.7768 455.304 59.3243 456.114C54.0779 457.068 59.2076 441.902 59.9276 440.257C63.9904 430.97 73.5485 422.82 81.7314 417.117C85.0785 414.784 76.1945 420.715 75.6987 421.168C68.7719 427.49 62.5517 435.459 54.412 440.343C51.2004 442.27 51.4486 436.454 51.2664 434.741C50.1327 424.085 52.1055 414.22 53.6363 403.759C54.0793 400.732 53.9811 397.672 53.9811 394.624C53.9811 394.275 54.307 389.322 53.464 392.038C49.8387 403.72 46.9654 415.971 46.2248 428.191C46.1122 430.049 46.4378 436.393 43.1222 435.991C35.2613 435.038 28.2118 429.92 20.5428 427.976C16.516 426.955 16.6258 431.206 18.3452 434.095C21.336 439.119 26.1365 442.814 30.7122 446.246" stroke="#613D25" stroke-width="2" stroke-linecap="round"/>
<path d="M19.8538 454.778C19.8538 467.849 19.8538 480.92 19.8538 493.991C19.8538 498.449 20.2955 501.542 19.0781 505.194" stroke="#613D25" stroke-width="2" stroke-linecap="round"/>
<path d="M58.6345 607.578C58.6345 599.678 58.6345 591.778 58.6345 583.878C58.6345 581.89 53.9998 579.329 53.3774 580.948C52.5447 583.113 53.6005 586.177 53.8083 588.359C54.2278 592.763 54.0404 597.296 53.9807 601.717C53.9561 603.538 53.2051 605.316 53.2051 607.061C53.2051 608.01 53.4919 605.181 53.7222 604.26C54.5709 600.865 56.1374 597.732 57.3849 594.478C59.4314 589.139 61.2642 582.813 55.532 579.31C53.747 578.219 51.5269 577.255 50.4904 575.389C49.5103 573.625 52.1618 574.688 52.8173 575.087C56.1823 577.136 57.913 581.836 58.893 585.429C60.1453 590.021 60.6981 595.466 59.3239 600.08C58.5466 602.689 56.9634 604.954 56.3076 607.578" stroke="#613D25" stroke-width="2" stroke-linecap="round"/>
<path d="M60.1859 619.212C62.9621 619.675 64.3621 623.025 65.1844 625.417C65.6313 626.717 67.4682 631.148 64.8397 628.519C62.636 626.316 61.5245 623.731 59.7981 621.237C58.5691 619.462 58.6304 618.619 60.3582 620.936C68.6347 632.034 70.9448 645.263 74.3196 658.424C74.5043 659.145 77.1327 656.23 78.0254 654.891" stroke="#613D25" stroke-width="2" stroke-linecap="round"/>
<path d="M93.5385 556.386C93.3841 557.467 87.757 549.956 87.3335 549.233C84.0564 543.64 81.8227 537.471 79.4048 531.48C79.055 530.613 77.2897 527.538 78.8015 529.239C79.6781 530.225 79.4481 530.2 78.7154 528.377C76.831 523.689 75.2146 518.922 73.803 514.071C72.3235 508.987 70.9102 503.878 69.6663 498.731C69.263 497.062 68.7408 492.22 68.1151 493.819C66.1811 498.761 68.0424 506.878 67.9427 512.261C67.8479 517.379 66.3982 509.302 66.3915 508.125C66.3202 495.652 66.1831 483.287 67.7704 470.894C68.2139 467.432 68.4585 461.243 71.0452 458.657" stroke="#613D25" stroke-width="2" stroke-linecap="round"/>
<path d="M49.3293 436.939C49.3293 439.732 49.1011 442.596 49.9326 445.299C51.139 449.219 47.0672 437.607 45.4512 433.836" stroke="#613D25" stroke-width="2" stroke-linecap="round"/>
<path d="M30.7129 344.639V429.958" stroke="#613D25" stroke-width="2" stroke-linecap="round"/>
<path d="M40.7951 172.449C40.7951 184.846 39.8436 197.632 41.5708 209.938C41.8249 211.748 42.5283 217.186 42.3464 215.367C42.0746 212.649 40.4265 211.403 38.5113 209.679C36.6865 208.037 35.824 206.624 36.3568 204.12C36.7206 202.411 39.3591 191.462 42.0017 194.985C46.2737 200.681 49.4703 207.742 48.3791 215.108C47.2649 222.629 47.0002 211.25 47.0002 209.248C47.0002 208.907 47.0002 205.002 47.0002 207.094C47.0002 211.518 47.0002 215.941 47.0002 220.365C47.0002 224.334 46.0922 219.541 45.3627 218.082C43.594 214.544 42.1792 210.374 39.33 207.524C35.3642 203.559 34.0161 222.57 33.8145 225.192" stroke="#613D25" stroke-width="2" stroke-linecap="round"/>
<path d="M67.9427 180.981C67.9427 188.45 67.9427 195.919 67.9427 203.388C67.9427 206.059 66.8334 211.828 69.2354 213.772C70.5677 214.851 74.6639 216.001 75.699 213.988C78.7112 208.131 67.1927 205.412 64.4955 202.224C61.7762 199.01 63.289 190.923 63.289 187.013C63.289 184.2 62.9017 181.063 63.332 178.266C63.5847 176.624 71.7711 167.98 68.7184 167.795C59.241 167.22 58.2699 182.747 57.9457 189.556C57.6729 195.285 57.8595 201.056 57.8595 206.792C57.8595 207.482 57.856 212.975 58.4628 209.334C60.0044 200.084 46.7452 211.674 44.6738 213.557" stroke="#613D25" stroke-width="2" stroke-linecap="round"/>
<path d="M64.8395 212.006C63.8006 215.815 57.2245 218.177 54.0669 220.107C51.4381 221.713 58.6491 219.112 60.1858 217.78C61.8388 216.347 57.6138 221.322 56.4369 223.166C54.4537 226.273 53.2153 229.616 52.1278 233.12C51.8818 233.913 51.3578 236.204 52.7742 234.413C55.4643 231.011 56.6774 226.657 57.6865 222.52C58.3672 219.729 52.2898 230.701 51.6969 231.784C48.1963 238.18 44.6751 244.756 42.1308 251.606C40.6234 255.665 45.176 249.706 45.4488 249.322C49.1448 244.122 52.5558 238.299 55.2734 232.517C55.5785 231.868 58.2975 225.131 58.2036 225.148C52.4502 226.227 47.5764 234.784 44.7593 239.11C40.0947 246.273 36.6175 254.031 33.642 262.034C32.73 264.487 30.9102 268.464 31.5305 271.255C31.7675 272.322 46.8426 266.329 47.6033 266.041C55.5537 263.039 65.0811 257.966 73.8886 258.716C81.5796 259.371 69.0695 272.758 63.159 270.394C59.2381 268.825 60.2012 258.014 60.1858 254.924C60.1548 248.737 60.4332 242.626 61.737 236.567C63.7847 227.052 59.7766 239.096 58.9792 242.126C56.3663 252.055 51.4878 282.486 53.8945 272.505C58.1984 254.657 58.6345 236.461 58.6345 218.211C58.6345 208.231 58.2405 227.541 58.1174 228.725C56.5314 243.976 53.0401 258.923 50.8782 274.056" stroke="#613D25" stroke-width="2" stroke-linecap="round"/>
<path d="M59.4123 266.3C60.114 268.756 64.7154 278.27 60.705 278.883C54.076 279.896 47.272 279.99 40.711 281.382C35.5813 282.47 42.9396 281.916 44.2875 281.684C48.4473 280.966 52.4996 279.774 56.6114 278.84C59.9943 278.071 58.7047 279.279 57.0854 281.382C54.504 284.734 51.9829 288.178 49.6738 291.724C48.3522 293.753 44.514 298.756 46.916 298.446C50.9226 297.929 52.2313 290.791 55.922 289.655C61.6374 287.897 56.8744 329.021 60.1879 330.678" stroke="#613D25" stroke-width="2" stroke-linecap="round"/>
<path d="M78.8021 321.37C78.8021 319.138 79.4412 313.669 78.4574 319.474C74.9718 340.039 67.0168 359.73 62.2123 380.016C61.08 384.797 62.9661 377.009 63.4188 376.052C67.4007 367.629 72.0951 359.695 75.6134 351.016C78.3038 344.38 81.5575 337.59 82.5079 330.419C82.8308 327.982 83.1876 323.661 81.8185 329.04C77.5749 345.711 72.0466 362.282 65.6595 378.249C64.7982 380.403 64.8408 377.161 64.8408 376.612C64.8408 361.879 69.2558 347.746 73.2004 333.694C75.0132 327.236 76.1995 320.772 77.0785 314.131C77.1965 313.239 77.3366 312.275 77.2078 311.373C76.9638 309.665 76.3986 311.845 75.5704 313.527C72.4294 319.906 67.369 331.334 64.8839 336.925C61.2993 344.991 55.7068 355.01 53.3787 363.857C53.2572 364.319 54.3232 364.029 54.8007 364.029C56.4269 364.029 56.9751 363.806 57.8601 362.478" stroke="#613D25" stroke-width="2" stroke-linecap="round"/>
<path d="M36.9185 340.761C32.7813 339.057 34.5916 351.761 34.5916 353.774C34.5916 364.452 33.628 378.264 45.7951 382.559C51.0057 384.398 56.583 383.806 57.7743 390.358C58.2356 392.895 58.4901 395.541 58.593 398.114C58.6424 399.35 57.6818 404.401 59.8426 401.691C66.0086 393.957 71.8767 384.558 74.752 375.061C75.124 373.832 77.1267 364.133 75.1829 363.426C72.0723 362.295 68.7355 372.651 68.0298 374.415C67.4451 375.877 65.4311 383.326 68.5469 378.594C71.5308 374.063 70.6701 377.524 69.1502 380.835C66.3964 386.834 63.4636 392.761 60.5321 398.675C60.256 399.232 55.5336 410.384 55.5336 407.508C55.5336 395.726 58.6047 384.092 59.7134 372.389C60.4933 364.156 61.1982 358.167 52.9482 354.722C45.7301 351.708 40.4603 348.596 37.4355 340.933C36.866 339.49 34.5286 326.857 37.0046 333.048C41.5824 344.492 42.0692 357.49 43.4251 369.588C44.0864 375.489 44.6748 381.359 44.6748 387.299" stroke="#613D25" stroke-width="2" stroke-linecap="round"/>
<path d="M77.2505 159.263C77.1908 157.235 73.3723 145.715 73.3723 151.679C73.3723 157.723 74.7067 163.974 74.1049 169.993C73.9617 171.424 72.2944 171.673 74.148 171.673" stroke="#613D25" stroke-width="2" stroke-linecap="round"/>
<path d="M81.1289 131.34C81.1289 139.413 81.1289 147.485 81.1289 155.557C81.1289 157.137 81.1289 158.717 81.1289 160.297C81.1289 162.396 79.9205 156.275 79.1899 154.308C77.5368 149.857 75.5272 144.941 77.7248 152.886C78.4174 155.39 80.568 168.164 84.2315 168.571C87.3411 168.916 86.5583 169.922 86.5583 173.267C86.5583 177.627 86.8002 182.057 86.5583 186.41C86.4724 187.957 82.0881 188.553 81.1289 189.513" stroke="#613D25" stroke-width="2" stroke-linecap="round"/>
<path d="M34.5903 136.77C34.5903 145.638 33.8146 154.456 33.8146 163.313C33.8146 165.944 34.3226 169.02 33.7285 171.587C32.6198 176.376 30.7121 180.684 30.7121 185.634C30.7121 187.511 30.5038 188.176 31.143 185.893C32.4377 181.269 33.039 177.199 33.039 172.362C33.039 171.368 31.9756 151.593 34.2024 151.593C35.0146 151.593 34.5062 188.792 34.5903 192.615C34.6658 196.05 35.5424 198.465 39.2871 198.777C40.1479 198.849 43.8978 198.97 43.8978 198.949C43.8978 193.815 44.1706 188.598 43.7255 183.48C43.4689 180.529 41.6101 172.143 40.9677 175.034C40.7732 175.909 39.479 186.013 39.244 185.634C36.2474 180.806 37.6928 170.893 37.6928 165.468" stroke="#613D25" stroke-width="2" stroke-linecap="round"/>
<path d="M53.9821 71.6168C49.8834 75.7156 42.558 91.4867 46.6567 87.388C50.6987 83.346 50.8796 77.3289 50.8796 71.9616C50.8796 68.0637 45.095 79.3078 44.2867 80.9244C44.2272 81.0434 42.7189 84.4578 43.1232 84.4578C44.0497 84.4578 44.0878 81.2161 44.5021 82.0448C44.7968 82.6341 43.0474 86.2406 43.0371 86.2676C41.6858 89.8147 40.5587 93.3923 39.676 97.0834C39.0232 99.8134 37.6938 102.878 37.6938 105.701C37.6938 106.939 37.0143 114.266 39.4175 111.777C41.6067 109.51 42.3448 106.178 44.5021 104.021C45.9964 102.527 44.6264 108.277 44.2436 110.355C43.9631 111.878 43.6883 117.3 41.9598 118.068C39.7106 119.068 37.3566 118.829 36.1426 121.257" stroke="#613D25" stroke-width="2" stroke-linecap="round"/>
<path d="M38.4685 100.315C38.4685 118.429 37.7984 134.832 33.0391 152.283" stroke="#613D25" stroke-width="2" stroke-linecap="round"/>
<path d="M20.1198 135.352C18.2893 135.415 16.6374 136.033 14.9499 136.685C13.907 137.088 13.1585 137.383 14.7242 137.383C15.0584 137.383 17.0129 137.137 17.1245 137.547C17.3533 138.386 17.0761 138.491 16.3449 138.491C15.68 138.491 15.5986 137.404 15.8013 136.931C16.289 135.793 18.4182 136.233 19.289 135.536C20.4456 134.611 19.1193 132.115 21.0431 131.474" stroke="#613D25" stroke-width="2" stroke-linecap="round"/>
<path d="M93.4346 106.522C92.1774 106.452 88.2766 105.052 88.3699 105.052C89.1684 105.052 93.1859 104.902 90.4938 105.052C86.2444 105.288 82.8056 108.587 81.7123 113.507C81.5331 114.313 79.1187 119.552 78.8941 119.102C77.2472 115.809 82.9074 110.551 84.939 108.809C86.0751 107.836 91.6572 103.674 87.5531 106.522C85.5105 107.939 80.9363 109.682 80.9363 112.404" stroke="#613D25" stroke-width="2" stroke-linecap="round"/>
<path d="M115.123 83.8807C116.23 83.8807 117.025 83.9765 117.449 85.2256C117.598 85.6636 116.758 86.6785 116.831 86.7522C118.063 87.9835 118.649 89.6548 116.686 90.8232C115.584 91.4794 114.413 91.9703 113.233 92.4589C112.632 92.7076 112.934 93.273 113.487 92.4589C114.505 90.9627 106.628 93.9306 105.963 94.2036C104.13 94.956 104.951 94.567 105.673 94.2763C107.335 93.6065 109.088 93.1383 110.798 92.6042C112.47 92.0817 121.576 90.4642 117.667 87.1521C115.666 85.4562 112.408 85.9846 109.962 85.7708C109.457 85.7267 106.591 85.8372 106.618 85.1166C106.636 84.6314 107.777 83.0292 107.417 82.972C105.076 82.5996 102.325 84.5885 100.438 85.7345C97.601 87.4581 95.168 89.9271 95.168 93.3676" stroke="#613D25" stroke-width="2" stroke-linecap="round"/>
<path d="M52.2808 301.009C49.983 309.051 51.3407 318.782 51.3407 327.122C51.3407 327.819 51.3407 332.319 51.3407 328.793C51.3407 320.867 53.4856 313.484 54.9965 305.762C56.1533 299.849 57.3002 293.391 56.981 287.326C56.7664 283.248 52.7982 282.525 49.4606 281.79C47.4157 281.34 30.1073 278.098 29.1972 280.746C27.6868 285.14 33.4121 294.84 34.6809 299.129C36.7241 306.037 37.6001 313.17 38.18 320.333C38.8056 328.061 39.3467 336.225 37.1877 343.782C37.0017 344.432 34.4664 351.349 32.4874 349.37C31.5054 348.388 30.7583 345.869 30.3984 344.931C28.2792 339.406 25.9821 334.102 23.1391 328.897C18.8752 321.092 13.9509 314.175 8.72492 307.067C5.47961 302.654 18.6893 307.892 19.5355 308.216C28.598 311.694 37.9778 315.899 45.4915 322.16C47.5598 323.884 52.0669 327.259 52.2808 330.36C52.3739 331.711 50.8563 332.491 49.9829 331.3C49.0077 329.97 49.3245 328.608 49.5128 326.913C50.535 317.713 53.0032 308.59 55.3098 299.651C56.2287 296.091 57.6982 285.718 58.8611 289.206C59.716 291.771 58.8629 296.726 58.8089 299.234C58.5774 309.999 57.2144 320.38 54.3698 330.778C53.0021 335.777 51.5817 340.817 50.0351 345.766C48.6713 350.13 54.5184 337.792 56.5632 333.702C60.3238 326.181 63.8368 318.468 65.9638 310.305C66.7573 307.26 66.6989 303.87 67.6872 300.905C71.1242 290.594 60.7413 321.894 60.7413 332.762C60.7413 341.17 69.0753 330.865 69.5673 331.248C71.7149 332.918 69.3579 341.955 68.9928 344.043C67.9955 349.748 66.9574 355.414 66.3816 361.173" stroke="#613D25" stroke-width="2" stroke-linecap="round"/>
<path d="M60.7399 385.614C61.4561 385.277 64.0542 383.914 61.7844 385.457C56.8211 388.832 52.721 393.598 48.5192 397.835C44.6743 401.711 40.6998 405.453 38.2831 410.421C36.0118 415.09 36.1865 413.123 36.3507 408.854C36.55 403.674 37.1861 398.532 37.2385 393.343C37.2631 390.917 36.5198 387.165 37.3952 384.831C38.8304 381.003 45.1409 392.444 45.1768 392.508C51.209 403.258 56.6764 414.294 62.8289 424.992C64.1152 427.228 72.8572 445.583 78.1831 442.539C79.811 441.609 83.8836 430.036 84.189 433.243C84.5758 437.305 85.7044 442.159 81.3689 438.257C75.5436 433.014 73.2312 434.091 69.2004 440.137" stroke="#613D25" stroke-width="2" stroke-linecap="round"/>
<path d="M86.1232 462.699C86.1232 473.784 87.9576 506.431 84.452 495.914C83.0803 491.799 83.2849 485.837 82.833 481.5C82.491 478.217 82.7069 474.813 81.4752 471.734C81.36 471.446 80.9639 474.07 80.9529 474.136C79.9725 480.018 80.0589 486.115 79.5428 492.049C78.6171 502.695 77.5561 511.136 81.8407 520.93C83.5847 524.916 81.1185 516.096 80.9007 515.185C79.5504 509.538 76.7227 503.324 76.7227 497.481" stroke="#613D25" stroke-width="2" stroke-linecap="round"/>
<path d="M24.0783 469.279C24.0783 466.145 22.8849 475.438 22.0937 478.471C20.1945 485.751 17.6133 492.651 15.3044 499.779C14.0056 503.788 19.6613 494.8 20.2658 493.773C23.6023 488.101 25.4207 481.599 26.4806 475.128C27.6928 467.728 26.8419 457.422 30.6587 450.687C31.8111 448.653 35.2606 434.247 35.3589 443.584C35.4603 453.21 36.3682 463.451 35.3589 473.039C35.0353 476.113 29.9796 479.463 28.413 482.074C25.0332 487.707 25.0183 493.742 25.0183 500.092C25.0183 504.214 24.831 508.4 25.0183 512.522C25.1054 514.436 27.5393 522.264 26.8984 520.982" stroke="#613D25" stroke-width="2" stroke-linecap="round"/>
<path d="M26.8984 521.922C26.8984 531.527 29.4224 539.494 32.0687 548.609C32.8041 551.142 32.7444 551.981 34.8889 551.742C36.455 551.568 36.8991 563.267 37.239 564.747C37.5567 566.129 38.2042 570.496 40.0592 570.805C41.1997 570.995 42.6231 570.269 42.8271 571.901C43.3886 576.393 42.5674 585.011 46.6396 587.726" stroke="#613D25" stroke-width="2" stroke-linecap="round"/>
<path d="M83.3024 524.742C83.3024 527.667 83.3024 530.591 83.3024 533.516C83.3024 537.868 85.3329 524.192 83.0935 520.46C82.6718 519.757 81.2755 527.888 81.2133 528.502C80.6908 533.67 80.4822 538.715 80.4822 543.909C80.4822 546.259 80.049 551.222 83.5113 548.452C85.8501 546.581 86.2835 554.719 88.4204 554.719C90.5316 554.719 89.6845 541.831 90.0916 546.259C90.3035 548.563 89.6727 560.68 94.113 557.226C95.794 555.919 97.8849 563.445 100.223 564.224" stroke="#613D25" stroke-width="2" stroke-linecap="round"/>
<path d="M114.855 594.908C114.785 599.111 114.644 603.622 113.707 607.744C113.128 610.291 114.37 606.989 114.855 606.214C116.846 603.028 119.246 599.461 119.445 595.674C119.516 594.333 121.431 590.658 119.445 589.723C116.646 588.406 118.664 600.492 119.445 601.794C122.964 607.659 122.162 613.642 122.505 620.155C122.565 621.285 124.049 620.92 124.843 620.92C127.408 620.92 127.095 622.375 127.095 624.575C127.095 627.168 127.095 629.76 127.095 632.353C127.095 632.784 128.084 633.325 127.691 633.5C125.729 634.372 123.902 640.252 123.355 642.086C122.437 645.168 122.505 648.344 122.505 651.521" stroke="#613D25" stroke-width="2" stroke-linecap="round"/>
<path d="M120.976 690.538C119.922 683.626 116.256 673.546 118.086 666.227C118.791 663.406 122.463 661.51 124.418 659.554C125.698 658.275 128.478 654.373 128.286 652.457C128.166 651.253 123.912 653.732 123.696 653.732C122.021 653.732 122.506 639.249 122.506 637.496C122.506 634.068 122.506 629.143 122.506 635.881C122.506 649.363 121.741 662.815 121.741 676.3C121.741 680.545 121.914 684.701 122.336 688.923C122.41 689.664 122.066 692.818 122.676 693.429C124.433 695.186 129.213 693.961 131.516 696.064C133.585 697.953 136.66 703.075 139.719 700.016C142.801 696.935 144.591 691.978 144.692 687.648C144.843 681.159 140.202 692.072 138.912 693.896C135.927 698.115 130.685 701.592 125.268 701.121C122.146 700.85 123.04 695.441 124.036 693.599C125.703 690.514 131.306 689.969 132.366 687.053C133.425 684.142 132.451 679.026 132.451 676.003" stroke="#613D25" stroke-width="2" stroke-linecap="round"/>
<path d="M134.747 604.089C132.299 599.804 128.968 596.854 125.184 593.803C122.766 591.853 120.011 590.91 117.747 588.703C114.557 585.594 111.933 581.523 107.971 579.438C104.063 577.381 106.441 562.84 106.441 558.187" stroke="#613D25" stroke-width="2" stroke-linecap="round"/>
<path d="M66.3155 248.623C61.7128 250.296 58.809 259.284 56.7741 263.116C54.0561 268.234 51.8999 274.987 48.0782 279.421C47.0345 280.631 47.5802 280.209 49.1652 280.145C52.5734 280.009 51.2107 273.524 50.9164 271.268C50.4121 267.402 34.2402 236.614 32.8603 237.994C30.7662 240.088 31.5524 247.698 31.5318 250.193C31.4655 258.217 30.5928 267.068 32.6792 274.891C34.3081 281 46.5608 289.667 42.2205 295.907C38.2952 301.549 23.7881 307.025 33.7058 295.605C37.1576 291.63 46.5712 286.214 42.2809 280.085C41.1221 278.429 35.5715 265.52 42.1601 267.101C48.1315 268.535 40.7918 316.63 40.4693 320.726C40.3925 321.7 39.1883 329.184 40.7108 329.905C41.6369 330.344 43.1686 329.806 44.0322 329.543C45.5813 329.071 46.2465 328.18 45.4211 331.294C44.0093 336.621 38.7691 349.126 37.3291 352.672C34.9371 358.562 23.6954 398.602 13.2945 375.8C8.20528 364.643 13.2102 346.043 23.8021 339.99C24.4614 339.613 27.9734 336.647 28.2104 338.662C29.0893 346.132 28.2708 354.167 28.2708 361.669C28.2708 371.249 27.9323 380.901 28.3312 390.475C28.6979 399.276 34.6846 387.456 35.8797 385.1C39.7265 377.518 42.7815 369.859 44.5757 361.549C46.5949 352.196 42.6899 360.869 40.5296 365.051C35.1352 375.496 30.1327 386.331 25.7345 397.238C24.9446 399.197 20.3544 407.554 25.0099 404.062" stroke="#613D25" stroke-width="2" stroke-linecap="round"/>
<path d="M70.6631 391.018C67.7387 388.094 63.141 383.62 63.0541 390.656C62.9632 398.021 63.0541 405.393 63.0541 412.758C63.0541 416.004 64.3087 422.164 62.9334 425.259C61.1414 429.291 55.7827 415.004 55.6264 414.449C54.091 408.999 52.875 402.886 53.3316 397.178C53.7497 391.952 62.8801 394.105 65.2281 396.453" stroke="#613D25" stroke-width="2" stroke-linecap="round"/>
<path d="M72.8378 248.623C73.7925 249.816 74.9408 255.113 73.804 256.534C73.0049 257.533 62.3358 236.518 62.0283 232.982C61.6268 228.365 64.1872 231.975 66.1951 234.25C70.3066 238.91 74.3781 247.382 79.6013 250.797C82.7211 252.837 89.6686 249.879 89.7465 255.024C89.7891 257.832 82.6789 272.75 84.372 273.503C86.3135 274.366 88.4903 272.871 90.1089 274.952C92.0778 277.484 91.4296 281.807 90.7128 284.675C89.2846 290.387 87.9227 295.949 91.3166 301.04C96.1433 308.28 84.8317 296.576 83.4662 294.639C82.8388 293.749 79.2604 287.155 82.2584 291.438C86.3375 297.265 89.1315 304.237 91.1959 311.004C91.7571 312.844 98.3124 332.994 95.4834 333.348C92.9494 333.664 89.9614 333.585 87.4518 333.166C85.3133 332.81 79.8404 329.764 81.1714 331.476C84.1472 335.301 95.4817 338.976 96.51 343.432C97.3352 347.008 82.1717 349.163 79.5409 348.505C74.8941 347.343 80.6353 337.286 84.2512 336.729C90.7001 335.737 89.2551 355.447 88.418 359.013C86.4522 367.386 80.8468 373.513 78.2728 381.235" stroke="#613D25" stroke-width="2" stroke-linecap="round"/>
<path d="M78.271 413.845C78.271 408.773 78.271 403.7 78.271 398.627C78.271 388.232 69.8887 403.839 64.9252 402.794C63.5616 402.507 70.3876 411.857 71.7491 414.087C73.9546 417.699 76.6686 427.083 80.445 429.305C82.1502 430.308 76.4058 430.112 75.0101 430.15C71.9029 430.234 71.7491 429.922 71.7491 426.889" stroke="#613D25" stroke-width="2" stroke-linecap="round"/>
</svg>
