<svg width="100" height="100" viewBox="0 0 100 100" fill="none" xmlns="http://www.w3.org/2000/svg">
<rect x="1.5" y="1.5" width="97" height="97" rx="48.5" stroke="#A8324C" stroke-width="3"/>
<path d="M70 50.1213C70 39.008 61.0467 30 50 30C38.9533 30 30 39.008 30 50.1213C30 60.1667 37.312 68.4907 46.8747 70V55.9387H41.7973V50.12H46.8747V45.688C46.8747 40.6453 49.86 37.8587 54.4293 37.8587C56.616 37.8587 58.9067 38.252 58.9067 38.252V43.204H56.3827C53.8987 43.204 53.1253 44.756 53.1253 46.348V50.1213H58.672L57.7853 55.9373H53.1253V70C62.688 68.4907 70 60.1667 70 50.1213Z" fill="#A8324C"/>
</svg>
