<svg width="100" height="100" viewBox="0 0 100 100" fill="none" xmlns="http://www.w3.org/2000/svg">
<rect x="1.5" y="1.5" width="97" height="97" rx="48.5" stroke="#E0EFFA" stroke-width="3"/>
<path d="M49.8031 42.1639C45.7409 42.1639 42.4479 45.3791 42.4479 49.3452C42.4479 53.3112 45.7409 56.5264 49.8031 56.5264C53.8653 56.5264 57.1584 53.3112 57.1584 49.3452C57.1584 45.3791 53.8653 42.1639 49.8031 42.1639Z" fill="#E0EFFA"/>
<path fill-rule="evenodd" clip-rule="evenodd" d="M37.9658 29.6387C45.7694 28.7871 53.8368 28.7871 61.6406 29.6387C65.937 30.1075 69.4023 33.4126 69.9066 37.622C70.8395 45.4109 70.8395 53.2793 69.9066 61.0683C69.4023 65.2776 65.937 68.5828 61.6406 69.0516C53.8368 69.9031 45.7694 69.9031 37.9658 69.0516C33.6694 68.5828 30.2041 65.2776 29.6998 61.0683C28.7667 53.2793 28.7667 45.4109 29.6998 37.622C30.2041 33.4126 33.6694 30.1075 37.9658 29.6387ZM61.119 36.0875C59.869 36.0875 58.8558 37.0767 58.8558 38.2971C58.8558 39.5174 59.869 40.5067 61.119 40.5067C62.3689 40.5067 63.3821 39.5174 63.3821 38.2971C63.3821 37.0767 62.3689 36.0875 61.119 36.0875ZM39.0531 49.3451C39.0531 43.5485 43.8661 38.8495 49.8031 38.8495C55.7401 38.8495 60.5532 43.5485 60.5532 49.3451C60.5532 55.1417 55.7401 59.8408 49.8031 59.8408C43.8661 59.8408 39.0531 55.1417 39.0531 49.3451Z" fill="#E0EFFA"/>
</svg>
