<svg width="100" height="100" viewBox="0 0 100 100" fill="none" xmlns="http://www.w3.org/2000/svg">
<rect x="1.5" y="1.5" width="97" height="97" rx="48.5" stroke="#E0EFFA" stroke-width="3"/>
<path fill-rule="evenodd" clip-rule="evenodd" d="M65.5841 36.8294C67.3042 37.2915 68.665 38.6523 69.1271 40.3724C69.9743 43.5046 70 50.0001 70 50.0001C70 50.0001 70 56.5213 69.1528 59.6279C68.6906 61.348 67.3299 62.7087 65.6098 63.1709C62.5032 64.0181 50 64.0181 50 64.0181C50 64.0181 37.4968 64.0181 34.3902 63.1709C32.6701 62.7087 31.3094 61.348 30.8472 59.6279C30 56.4957 30 50.0001 30 50.0001C30 50.0001 30 43.5046 30.8216 40.3981C31.2837 38.6779 32.6444 37.3172 34.3646 36.8551C37.4711 36.0078 49.9743 35.9822 49.9743 35.9822C49.9743 35.9822 62.4775 35.9822 65.5841 36.8294ZM56.3671 50.0002L45.9949 56.0079V43.9925L56.3671 50.0002Z" fill="#E0EFFA"/>
</svg>
