<svg width="50" height="49" viewBox="0 0 50 49" fill="none" xmlns="http://www.w3.org/2000/svg">
<path d="M25.4365 0C17.0583 0 9.6401 4.11429 5.27646 10.4571C5.27646 10.4571 6.06192 10.2857 7.54555 10.5429C8.76737 10.7143 10.3383 11.2286 10.6001 10.9714C10.7746 10.7143 10.6001 10.2857 10.3383 10.0286C9.6401 9.34286 8.94192 9.17143 9.37828 8.65714C9.90192 8.05714 13.4801 8.4 16.971 8.91429C20.5492 9.51429 22.0328 9.25714 22.0328 9.25714L23.1674 8.74286C23.0801 8.05714 22.8183 6.68571 22.8183 6.17143C22.8183 6 22.731 5.65714 22.9928 5.4C23.0801 5.31429 23.2546 5.22857 23.4292 5.22857C23.6037 5.22857 23.8656 5.31429 24.1274 5.48571C24.5637 5.91429 26.7456 7.71429 27.1819 8.05714C27.531 8.14286 28.6656 8.4 29.451 8.65714C29.7128 8.74286 29.8874 8.82857 30.0619 9.08571C30.411 9.6 31.1092 10.8 31.1965 10.9714C31.1965 10.9714 40.4474 22.3714 41.1456 22.7143C41.931 23.1429 42.1928 24.3429 42.1928 24.6C42.1928 24.6857 42.1928 24.6857 42.1928 24.7714C42.1928 24.7714 41.931 26.3143 41.7565 27.1714C41.5819 27.8571 41.2328 28.4571 40.4474 28.5429C39.8365 28.6286 38.1783 28.9714 38.0037 28.9714C37.3056 28.9714 36.9565 28.6286 36.6946 28.4571C36.6074 28.3714 36.171 27.9429 35.8219 27.6857C35.2983 27.1714 34.9492 27 34.6874 26.9143C34.5128 26.8286 31.4583 25.4571 28.8401 24.1714C28.4037 23.6571 27.9674 23.1429 27.6183 22.7143L27.4437 22.4571C27.1819 22.0286 26.7456 21.2571 26.4837 20.8286C26.1346 20.2286 25.5237 19.8 24.9128 19.6286C24.3892 19.5429 23.7783 19.3714 23.2546 19.2C23.1674 19.2 23.0801 19.1143 22.9056 19.1143C22.0328 18.3429 20.4619 17.0571 19.9383 16.7143C19.4146 16.3714 18.891 16.1143 18.3674 16.1143H18.2801C17.6692 16.1143 17.0583 16.3714 16.6219 16.8C16.2728 17.1429 15.9237 17.8286 16.011 18.8571C16.011 19.1143 16.0983 19.6286 16.1856 20.2286H16.011C14.1783 20.3143 6.7601 19.2857 5.45101 19.3714C2.83283 19.6286 2.57101 20.9143 2.65828 21.4286C2.74555 21.9429 3.00737 22.2857 3.61828 22.8857C3.70555 22.9714 2.39646 22.5429 1.87283 22.5429C1.52374 22.5429 0.738281 22.5429 0.738281 23.1429C1.0001 23.1429 1.26192 23.1429 1.52374 23.2286C2.04737 23.3143 3.00737 23.4857 3.70555 23.9143C4.66555 24.5143 5.53828 24.6857 5.8001 24.3429C6.23646 24 5.62555 23.3143 5.10192 22.8C4.40374 22.1143 3.79283 21.6857 4.57828 21C5.27646 20.4 8.59283 21 12.171 21.6C15.7492 22.2 17.2328 21.9429 17.2328 21.9429L18.3674 21.4286C18.2801 20.7429 18.0183 19.3714 18.0183 18.8571C18.0183 18.6857 18.0183 18.3429 18.1928 18.0857C18.2801 18 18.4546 17.9143 18.6292 17.9143C18.8037 17.9143 19.0656 18 19.3274 18.1714C19.851 18.5143 22.0328 20.3143 22.4692 20.7429C22.8183 20.8286 23.9528 21.0857 24.7383 21.3429C25.0001 21.4286 25.1746 21.5143 25.3492 21.7714C25.6983 22.2857 26.3965 23.4857 26.4837 23.6571C26.4837 23.6571 35.7346 35.0571 36.4328 35.4857C37.2183 35.9143 37.4801 37.1143 37.4801 37.3714C37.4801 37.4571 37.4801 37.4571 37.4801 37.5429C37.4801 37.5429 37.2183 39.0857 37.0437 39.9429C36.8692 40.6286 36.5201 41.2286 35.7346 41.3143C35.1237 41.4 33.4656 41.7429 33.291 41.7429C32.5928 41.7429 32.2437 41.4 31.9819 41.2286C31.8946 41.1429 31.4583 40.7143 31.1092 40.4571C30.5856 39.9429 30.2365 39.7714 29.9746 39.6857C29.6256 39.5143 20.4619 35.2286 20.3746 35.2286C19.4146 34.8 18.8037 34.6286 18.3674 34.6286C17.6692 34.6286 15.2256 35.3143 12.8692 37.1143C9.72737 39.5143 9.11646 42 9.02919 42C13.3928 45.8571 19.1528 48.1714 25.4365 48.1714C38.9637 48.1714 49.8728 37.4571 49.8728 24.1714C49.8728 10.8857 38.9637 0 25.4365 0Z" fill="#E0EFFA"/>
</svg>
