<svg width="193" height="49" viewBox="0 0 193 49" fill="none" xmlns="http://www.w3.org/2000/svg">
<path d="M70.9057 11.7428C69.8584 10.7999 68.4621 10.3714 66.7166 10.3714H60.3457V12.5999H61.1312V20.2285H60.3457V22.2856H66.7166C68.4621 22.2856 69.8584 21.7714 70.9057 20.9142C71.953 19.9714 72.4766 18.4285 72.4766 16.2856C72.4766 14.1428 71.953 12.5999 70.9057 11.7428ZM67.7639 18.6856C67.7639 19.1142 67.6766 19.5428 67.4148 19.7142C67.153 19.9714 66.8912 20.0571 66.4548 20.0571H65.3202V12.4285H66.4548C67.3275 12.4285 67.7639 12.9428 67.7639 13.7999V18.6856Z" fill="#A8324C"/>
<path d="M81.7275 20.1428V16.9714C81.7275 15.8571 81.3784 14.9999 80.7675 14.4856C80.0693 13.9714 79.0221 13.7142 77.4512 13.7142C76.8402 13.7142 76.1421 13.7999 75.5312 13.8856C74.9202 13.9714 74.3966 14.0571 73.873 14.1428V16.6285C74.3093 16.5428 74.6584 16.3714 75.1821 16.2856C75.793 16.1999 76.3166 16.1142 76.753 16.1142C77.3639 16.1142 77.8002 16.1999 78.1493 16.3714C78.4984 16.5428 78.673 16.7999 78.673 17.3142V17.5714H78.4112C75.0075 17.6571 73.3493 18.5999 73.3493 20.4856C73.3493 21.1714 73.5239 21.7714 73.9602 22.1142C74.3966 22.4571 75.0075 22.7142 75.7057 22.7142C76.3166 22.7142 76.753 22.6285 77.1893 22.3714C77.6257 22.1142 77.8875 21.8571 78.1493 21.5142L78.5857 20.9142V22.2856H82.4257V20.0571L81.7275 20.1428ZM78.5857 18.8571C78.5857 19.2856 78.4984 19.7142 78.3239 19.9714C78.1493 20.2285 77.8002 20.3999 77.4512 20.3999C77.1893 20.3999 77.0148 20.3142 76.8402 20.2285C76.6657 20.0571 76.5784 19.8856 76.5784 19.6285C76.5784 19.2856 76.753 18.9428 77.1021 18.7714C77.3639 18.5999 77.8002 18.5999 78.3239 18.5999H78.4984V18.8571H78.5857Z" fill="#A8324C"/>
<path d="M93.073 20.1428V16.5428C93.073 15.5999 92.8984 14.9142 92.4621 14.3999C92.0257 13.8856 91.4148 13.6285 90.6293 13.6285C89.4948 13.6285 88.6221 14.0571 87.8366 14.9999L87.4002 15.5142V13.8856H83.3857V16.1142H84.0839V20.2285H83.3857V22.2856H88.0984V20.0571H87.4002V17.2285C87.4002 16.4571 87.8366 16.0285 88.6221 16.0285C88.9712 16.0285 89.3202 16.1142 89.4948 16.3714C89.6693 16.5428 89.7566 16.8856 89.7566 17.3142V20.1428H89.0584V22.2856H93.7712V20.0571H93.073V20.1428Z" fill="#A8324C"/>
<path d="M102.237 19.7142C102.237 19.0285 102.062 18.4285 101.626 17.9999C101.189 17.5714 100.578 17.2285 99.7057 17.0571L98.7457 16.8856C98.3093 16.7999 98.0475 16.7142 97.873 16.5428C97.6984 16.3714 97.5239 16.1999 97.5239 15.9428C97.5239 15.6856 97.6112 15.1714 98.5712 15.1714C98.9202 15.1714 99.1821 15.2571 99.3566 15.4285C99.4439 15.5142 99.6184 15.6856 99.6184 16.0285H101.626V14.1428C100.753 13.7142 99.7057 13.5428 98.3966 13.5428C97.2621 13.5428 96.3021 13.7999 95.6039 14.2285C94.9057 14.7428 94.6439 15.3428 94.6439 16.1999C94.6439 17.6571 95.4293 18.5999 97.0002 18.8571L97.7857 19.0285C98.2221 19.1142 98.5712 19.1999 98.7457 19.3714C99.0075 19.5428 99.0948 19.7142 99.0948 20.0571C99.0948 20.3999 98.9202 20.8285 97.9602 20.8285C96.913 20.8285 96.7384 20.2285 96.7384 19.8856H94.5566V21.8571C95.7784 22.1999 97.0002 22.4571 98.3093 22.4571C99.5312 22.4571 100.491 22.1999 101.102 21.7714C101.975 21.3428 102.237 20.6571 102.237 19.7142Z" fill="#A8324C"/>
<path d="M112.709 20.1428L110.964 17.7428L112.535 16.0285H113.058V13.7999H109.917L107.909 16.7142H107.211V10.2856H103.197V12.5142H103.895V20.1428H103.197V22.2856H107.211V19.1999H107.909L109.568 22.2856H113.233V20.0571H112.709V20.1428Z" fill="#A8324C"/>
<path d="M67.2402 27.6856H68.0257V30.5142H65.3202V27.6856H66.1057V25.4571H60.3457V27.6856H61.1312V35.3142H60.3457V37.5428H66.1057V35.3142H65.3202V32.2285H68.0257V35.3142H67.2402V37.5428H73.0002V35.3142H72.2148V27.6856H73.0002V25.4571H67.2402V27.6856Z" fill="#A8324C"/>
<path d="M78.4112 28.7999C76.9275 28.7999 75.793 29.2285 74.9202 29.9142C74.1348 30.6856 73.6984 31.7999 73.6984 33.2571C73.6984 34.7142 74.1348 35.8285 74.9202 36.5999C75.7057 37.3714 76.9275 37.7142 78.4112 37.7142C79.2839 37.7142 80.0693 37.6285 80.7675 37.4571C81.3784 37.2856 81.9021 37.1142 82.2512 36.9428V34.7999C81.9021 34.8856 81.4657 34.9714 80.9421 35.0571C80.3312 35.1428 79.7202 35.2285 79.0221 35.2285C78.4112 35.2285 77.9748 35.1428 77.713 34.8856C77.4512 34.6285 77.2766 34.2856 77.2766 33.8571V33.5142H82.6002V32.5714C82.6002 31.4571 82.2512 30.5142 81.6402 29.8285C80.9421 29.1428 79.8948 28.7999 78.4112 28.7999ZM79.633 32.2285H77.2766V31.7999C77.2766 31.3714 77.3639 31.1142 77.5384 30.8571C77.713 30.6856 78.0621 30.5142 78.4112 30.5142C78.7602 30.5142 79.1093 30.5999 79.2839 30.8571C79.4584 31.0285 79.5457 31.3714 79.5457 31.7999V32.2285H79.633Z" fill="#A8324C"/>
<path d="M90.9784 34.8856C90.9784 34.1999 90.8039 33.5999 90.4548 33.1714C90.1057 32.7428 89.4075 32.3999 88.5348 32.2285L87.5748 32.0571C87.1384 31.9714 86.8766 31.8856 86.7021 31.7142C86.5275 31.5428 86.353 31.3714 86.353 31.1142C86.353 30.8571 86.4402 30.3428 87.4002 30.3428C87.7493 30.3428 88.0112 30.4285 88.1857 30.5999C88.273 30.6856 88.4475 30.8571 88.4475 31.1999H90.4548V29.3142C89.5821 28.8856 88.5348 28.7142 87.2257 28.7142C86.0912 28.7142 85.1312 28.9714 84.433 29.4856C83.7348 29.9142 83.473 30.5999 83.473 31.4571C83.473 32.9142 84.2584 33.8571 85.8293 34.1142L86.6148 34.2856C87.0512 34.3714 87.4002 34.4571 87.5748 34.6285C87.8366 34.7999 87.9239 34.9714 87.9239 35.3142C87.9239 35.5714 87.7493 36.0856 86.7893 36.0856C85.7421 36.0856 85.5675 35.4856 85.5675 35.1428H83.3857V37.1142C84.6075 37.5428 85.8293 37.7142 87.1384 37.7142C88.3602 37.7142 89.3202 37.4571 89.9312 37.0285C90.6293 36.5142 90.9784 35.8285 90.9784 34.8856Z" fill="#A8324C"/>
<path d="M96.3021 34.9714C96.1275 34.7142 96.0402 34.4571 96.0402 34.0285V31.1999H98.2221V28.9714H96.0402V27.0856H92.9857V27.5999C92.9857 28.0285 92.8984 28.3714 92.6366 28.6285C92.4621 28.7999 92.113 28.9714 91.7639 28.9714V31.1999H92.4621V34.2856C92.4621 35.4856 92.7239 36.4285 93.2475 36.9428C93.7712 37.4571 94.6439 37.7142 95.6912 37.7142C96.2148 37.7142 96.7384 37.6285 97.1748 37.5428C97.6112 37.4571 97.9602 37.3714 98.2221 37.2856V35.1428C97.7857 35.2285 97.4366 35.2285 97.0875 35.2285C96.8257 35.3142 96.4766 35.1428 96.3021 34.9714Z" fill="#A8324C"/>
<path d="M103.72 28.7999C102.237 28.7999 101.102 29.2285 100.229 29.9142C99.4439 30.6856 99.0075 31.7999 99.0075 33.2571C99.0075 34.7142 99.4439 35.8285 100.229 36.5999C101.015 37.3714 102.237 37.7142 103.72 37.7142C104.593 37.7142 105.378 37.6285 106.077 37.4571C106.688 37.2856 107.211 37.1142 107.56 36.9428V34.7999C107.211 34.8856 106.775 34.9714 106.251 35.0571C105.64 35.1428 105.029 35.2285 104.331 35.2285C103.72 35.2285 103.284 35.1428 103.022 34.8856C102.76 34.6285 102.586 34.2856 102.586 33.8571V33.5142H107.909V32.5714C107.909 31.4571 107.56 30.5142 106.949 29.8285C106.251 29.1428 105.204 28.7999 103.72 28.7999ZM104.942 32.2285H102.586V31.7999C102.586 31.3714 102.673 31.1142 102.848 30.8571C103.022 30.6856 103.371 30.5142 103.72 30.5142C104.069 30.5142 104.418 30.5999 104.593 30.8571C104.768 31.0285 104.855 31.3714 104.855 31.7999V32.2285H104.942Z" fill="#A8324C"/>
<path d="M114.717 31.1999L113.757 34.7999H113.233L112.273 31.1999H113.058V28.9714H108.433V31.1999H109.044L111.051 37.4571H115.589L117.597 31.1999H118.208V28.9714H113.931V31.1999H114.717Z" fill="#A8324C"/>
<path d="M128.942 28.7999C127.895 28.7999 127.022 29.0571 126.237 29.5714L126.149 29.6571L126.062 29.5714C125.364 29.0571 124.404 28.8856 123.182 28.8856C122.571 28.8856 121.873 28.8856 121.262 28.9714C120.651 29.0571 120.128 29.1428 119.604 29.2285V31.7142C120.04 31.5428 120.389 31.4571 120.913 31.3714C121.524 31.2856 122.048 31.1999 122.571 31.1999C123.182 31.1999 123.618 31.2856 123.968 31.4571C124.317 31.6285 124.491 31.8856 124.491 32.3142V32.5714H124.055C120.651 32.6571 118.993 33.5999 118.993 35.4856C118.993 36.1714 119.168 36.7714 119.604 37.1142C120.04 37.5428 120.651 37.7142 121.349 37.7142C122.048 37.7142 122.658 37.5428 123.182 37.2856C123.706 37.0285 124.142 36.5999 124.491 36.1714L124.666 35.9999L124.84 36.1714C125.277 36.6856 125.8 37.0285 126.411 37.2856C127.109 37.5428 127.808 37.6285 128.68 37.6285C129.553 37.6285 130.338 37.5428 131.037 37.3714C131.648 37.1999 132.171 37.0285 132.52 36.8571V34.7142C132.171 34.7999 131.735 34.8856 131.211 34.9714C130.6 35.0571 129.989 35.1428 129.291 35.1428C128.68 35.1428 128.244 35.0571 127.982 34.7999C127.72 34.5428 127.546 34.1999 127.546 33.7714V33.4285H132.869V32.4856C132.869 31.3714 132.52 30.4285 131.909 29.7428C131.298 29.1428 130.338 28.7999 128.942 28.7999ZM124.229 34.0285C124.229 34.4571 124.142 34.8856 123.968 35.1428C123.793 35.3999 123.531 35.5714 123.095 35.5714C122.833 35.5714 122.658 35.4856 122.484 35.3999C122.309 35.2285 122.222 35.0571 122.222 34.7999C122.222 34.4571 122.397 34.1142 122.746 33.9428C123.095 33.7714 123.444 33.7714 123.968 33.7714H124.142V34.0285H124.229ZM129.902 32.2285H127.546V31.7999C127.546 31.3714 127.633 31.1142 127.808 30.8571C127.982 30.6856 128.331 30.5142 128.68 30.5142C129.029 30.5142 129.378 30.5999 129.553 30.8571C129.728 31.0285 129.902 31.3714 129.902 31.7999V32.2285Z" fill="#A8324C"/>
<path d="M142.818 35.3142V25.4571H138.542V27.6856H139.502V30.5142L139.066 29.9999C138.804 29.6571 138.455 29.3999 138.106 29.1428C137.757 28.8856 137.233 28.7999 136.709 28.7999C135.662 28.7999 134.877 29.1428 134.353 29.9142C133.829 30.6856 133.568 31.7999 133.568 33.2571C133.568 34.7142 133.829 35.8285 134.353 36.5999C134.877 37.3714 135.662 37.7142 136.709 37.7142C137.233 37.7142 137.669 37.6285 138.018 37.3714C138.455 37.1142 138.804 36.8571 138.978 36.5142L139.328 35.9999V37.5428H143.342V35.3142H142.818ZM139.589 34.0285C139.589 34.4571 139.502 34.7142 139.24 34.9714C139.066 35.1428 138.804 35.3142 138.368 35.3142C137.931 35.3142 137.669 35.2285 137.495 35.0571C137.32 34.7999 137.233 34.5428 137.233 34.1142V32.4856C137.233 32.0571 137.32 31.7999 137.495 31.5428C137.669 31.3714 138.018 31.1999 138.368 31.1999C138.717 31.1999 139.066 31.2856 139.24 31.5428C139.415 31.7142 139.502 32.0571 139.502 32.4856L139.589 34.0285Z" fill="#A8324C"/>
<path d="M153.553 35.3142V25.4571H149.277V27.6856H150.237V30.5142L149.888 29.9999C149.626 29.6571 149.277 29.3999 148.84 29.1428C148.491 28.8856 147.968 28.7999 147.531 28.7999C146.484 28.7999 145.698 29.1428 145.175 29.9142C144.651 30.6856 144.389 31.7999 144.389 33.2571C144.389 34.7142 144.651 35.8285 145.175 36.5999C145.698 37.3714 146.484 37.7142 147.531 37.7142C148.055 37.7142 148.491 37.6285 148.84 37.3714C149.277 37.1142 149.626 36.8571 149.888 36.5142L150.237 35.9999V37.5428H154.251V35.3142H153.553ZM150.237 34.0285C150.237 34.4571 150.149 34.7142 149.975 34.9714C149.8 35.1428 149.451 35.3142 149.102 35.3142C148.753 35.3142 148.404 35.2285 148.229 35.0571C148.055 34.7999 147.968 34.5428 147.968 34.1142V32.4856C147.968 32.0571 148.055 31.7999 148.229 31.5428C148.404 31.3714 148.753 31.1999 149.102 31.1999C149.451 31.1999 149.8 31.2856 149.975 31.5428C150.149 31.7142 150.237 32.0571 150.237 32.4856V34.0285Z" fill="#A8324C"/>
<path d="M159.924 28.7999C158.44 28.7999 157.306 29.2285 156.433 29.9142C155.648 30.6856 155.211 31.7999 155.211 33.2571C155.211 34.7142 155.648 35.8285 156.433 36.5999C157.218 37.3714 158.44 37.7142 159.924 37.7142C160.797 37.7142 161.582 37.6285 162.28 37.4571C162.891 37.2856 163.415 37.1142 163.764 36.9428V34.7999C163.415 34.8856 162.978 34.9714 162.455 35.0571C161.844 35.1428 161.233 35.2285 160.535 35.2285C159.924 35.2285 159.488 35.1428 159.226 34.8856C158.964 34.6285 158.789 34.2856 158.789 33.8571V33.5142H164.026V32.5714C164.026 31.4571 163.677 30.5142 163.066 29.8285C162.368 29.1428 161.32 28.7999 159.924 28.7999ZM161.058 32.2285H158.702V31.7999C158.702 31.3714 158.789 31.1142 158.964 30.8571C159.138 30.6856 159.488 30.5142 159.837 30.5142C160.186 30.5142 160.535 30.5999 160.709 30.8571C160.884 31.0285 161.058 31.3714 161.058 31.7999V32.2285Z" fill="#A8324C"/>
<path d="M168.913 35.3142V25.4571H164.898V27.6856H165.597V35.3142H164.898V37.5428H169.611V35.3142H168.913Z" fill="#A8324C"/>
<path d="M179.037 30.2571L178.949 30.0856L179.822 29.0571H179.037L178.513 29.7428L178.338 29.6571C177.553 29.1428 176.593 28.8856 175.284 28.8856C173.8 28.8856 172.666 29.3142 171.793 29.9999C171.008 30.7714 170.571 31.8856 170.571 33.3428C170.571 34.5428 170.833 35.5714 171.444 36.2571L171.531 36.4285L170.746 37.4571H171.531L171.968 36.8571L172.142 36.9428C172.928 37.4571 173.975 37.7142 175.197 37.7142C176.68 37.7142 177.815 37.3714 178.688 36.5999C179.473 35.8285 179.909 34.7142 179.909 33.2571C179.909 31.9714 179.648 30.9428 179.037 30.2571ZM173.975 32.3142C173.975 31.8856 174.062 31.6285 174.324 31.3714C174.498 31.1999 174.848 31.0285 175.284 31.0285C175.808 31.0285 176.157 31.1999 176.331 31.5428L176.418 31.7142L173.975 34.0285V32.3142ZM176.506 34.1142C176.506 34.5428 176.418 34.8856 176.157 35.0571C175.982 35.2285 175.633 35.3142 175.197 35.3142C174.673 35.3142 174.324 35.1428 174.149 34.8856L174.062 34.7142L176.506 32.3999V34.1142Z" fill="#A8324C"/>
<path d="M190.818 33.2571C190.818 31.7999 190.557 30.6856 190.033 29.9142C189.509 29.1428 188.724 28.7999 187.677 28.7999C187.153 28.7999 186.717 28.8856 186.28 29.1428C185.844 29.3999 185.582 29.6571 185.32 29.9999L184.971 30.5142V25.4571H180.957V27.6856H181.655V35.3142H180.957V37.5428H184.971V35.9999L185.32 36.5142C185.582 36.8571 185.931 37.1142 186.28 37.3714C186.629 37.6285 187.153 37.7142 187.677 37.7142C188.724 37.7142 189.509 37.3714 189.946 36.5999C190.557 35.8285 190.818 34.7142 190.818 33.2571ZM187.24 34.0285C187.24 34.4571 187.153 34.7142 186.978 34.9714C186.804 35.1428 186.455 35.3142 186.106 35.3142C185.757 35.3142 185.408 35.2285 185.233 35.0571C185.058 34.7999 184.971 34.5428 184.971 34.1142V32.4856C184.971 32.0571 185.058 31.7999 185.233 31.5428C185.408 31.3714 185.757 31.1999 186.106 31.1999C186.455 31.1999 186.804 31.2856 186.978 31.5428C187.153 31.7142 187.24 32.0571 187.24 32.4856V34.0285Z" fill="#A8324C"/>
<path d="M25.4365 0C17.0583 0 9.6401 4.11429 5.27646 10.4571C5.27646 10.4571 6.06192 10.2857 7.54555 10.5429C8.76737 10.7143 10.3383 11.2286 10.6001 10.9714C10.7746 10.7143 10.6001 10.2857 10.3383 10.0286C9.6401 9.34286 8.94192 9.17143 9.37828 8.65714C9.90192 8.05714 13.4801 8.4 16.971 8.91429C20.5492 9.51429 22.0328 9.25714 22.0328 9.25714L23.1674 8.74286C23.0801 8.05714 22.8183 6.68571 22.8183 6.17143C22.8183 6 22.731 5.65714 22.9928 5.4C23.0801 5.31429 23.2546 5.22857 23.4292 5.22857C23.6037 5.22857 23.8656 5.31429 24.1274 5.48571C24.5637 5.91429 26.7456 7.71429 27.1819 8.05714C27.531 8.14286 28.6656 8.4 29.451 8.65714C29.7128 8.74286 29.8874 8.82857 30.0619 9.08571C30.411 9.6 31.1092 10.8 31.1965 10.9714C31.1965 10.9714 40.4474 22.3714 41.1456 22.7143C41.931 23.1429 42.1928 24.3429 42.1928 24.6C42.1928 24.6857 42.1928 24.6857 42.1928 24.7714C42.1928 24.7714 41.931 26.3143 41.7565 27.1714C41.5819 27.8571 41.2328 28.4571 40.4474 28.5429C39.8365 28.6286 38.1783 28.9714 38.0037 28.9714C37.3056 28.9714 36.9565 28.6286 36.6946 28.4571C36.6074 28.3714 36.171 27.9429 35.8219 27.6857C35.2983 27.1714 34.9492 27 34.6874 26.9143C34.5128 26.8286 31.4583 25.4571 28.8401 24.1714C28.4037 23.6571 27.9674 23.1429 27.6183 22.7143L27.4437 22.4571C27.1819 22.0286 26.7456 21.2571 26.4837 20.8286C26.1346 20.2286 25.5237 19.8 24.9128 19.6286C24.3892 19.5429 23.7783 19.3714 23.2546 19.2C23.1674 19.2 23.0801 19.1143 22.9056 19.1143C22.0328 18.3429 20.4619 17.0571 19.9383 16.7143C19.4146 16.3714 18.891 16.1143 18.3674 16.1143H18.2801C17.6692 16.1143 17.0583 16.3714 16.6219 16.8C16.2728 17.1429 15.9237 17.8286 16.011 18.8571C16.011 19.1143 16.0983 19.6286 16.1856 20.2286H16.011C14.1783 20.3143 6.7601 19.2857 5.45101 19.3714C2.83283 19.6286 2.57101 20.9143 2.65828 21.4286C2.74555 21.9429 3.00737 22.2857 3.61828 22.8857C3.70555 22.9714 2.39646 22.5429 1.87283 22.5429C1.52374 22.5429 0.738281 22.5429 0.738281 23.1429C1.0001 23.1429 1.26192 23.1429 1.52374 23.2286C2.04737 23.3143 3.00737 23.4857 3.70555 23.9143C4.66555 24.5143 5.53828 24.6857 5.8001 24.3429C6.23646 24 5.62555 23.3143 5.10192 22.8C4.40374 22.1143 3.79283 21.6857 4.57828 21C5.27646 20.4 8.59283 21 12.171 21.6C15.7492 22.2 17.2328 21.9429 17.2328 21.9429L18.3674 21.4286C18.2801 20.7429 18.0183 19.3714 18.0183 18.8571C18.0183 18.6857 18.0183 18.3429 18.1928 18.0857C18.2801 18 18.4546 17.9143 18.6292 17.9143C18.8037 17.9143 19.0656 18 19.3274 18.1714C19.851 18.5143 22.0328 20.3143 22.4692 20.7429C22.8183 20.8286 23.9528 21.0857 24.7383 21.3429C25.0001 21.4286 25.1746 21.5143 25.3492 21.7714C25.6983 22.2857 26.3965 23.4857 26.4837 23.6571C26.4837 23.6571 35.7346 35.0571 36.4328 35.4857C37.2183 35.9143 37.4801 37.1143 37.4801 37.3714C37.4801 37.4571 37.4801 37.4571 37.4801 37.5429C37.4801 37.5429 37.2183 39.0857 37.0437 39.9429C36.8692 40.6286 36.5201 41.2286 35.7346 41.3143C35.1237 41.4 33.4656 41.7429 33.291 41.7429C32.5928 41.7429 32.2437 41.4 31.9819 41.2286C31.8946 41.1429 31.4583 40.7143 31.1092 40.4571C30.5856 39.9429 30.2365 39.7714 29.9746 39.6857C29.6256 39.5143 20.4619 35.2286 20.3746 35.2286C19.4146 34.8 18.8037 34.6286 18.3674 34.6286C17.6692 34.6286 15.2256 35.3143 12.8692 37.1143C9.72737 39.5143 9.11646 42 9.02919 42C13.3928 45.8571 19.1528 48.1714 25.4365 48.1714C38.9637 48.1714 49.8728 37.4571 49.8728 24.1714C49.8728 10.8857 38.9637 0 25.4365 0Z" fill="#A8324C"/>
</svg>
