<svg width="406" height="197" viewBox="0 0 406 197" fill="none" xmlns="http://www.w3.org/2000/svg">
<path d="M1 175.688C11.6667 167.021 44.6 156.988 91 186.188C108 190.188 107 192.188 117 182.188C127 172.188 127 150.688 141.5 158.188C156 165.688 152 189.688 162.5 192.688C173 195.688 176.5 191.188 176.5 188.688C176.5 186.188 167.5 112.688 163.5 106.688C159.5 100.688 155.5 96.6881 152 97.6881C148.5 98.6881 141.5 108.188 141.5 117.188C141.5 126.188 148.5 181.688 153 187.188C157.5 192.688 161.5 196.688 162.5 195.688C163.5 194.688 166.5 186.688 165 183.188C163.5 179.688 156.5 110.688 156.5 108.688C156.5 106.688 152.5 98.1882 148.5 104.688C144.5 111.188 146.437 114.688 144 115.188C141.563 115.688 132 114.688 131 117.188C130 119.688 128.5 154.688 129 155.688C129.5 156.688 133.5 175.188 137.5 178.688C141.5 182.188 144 183.188 144 182.188C144 181.188 143.5 157.188 138.5 154.188C133.5 151.188 130 150.188 121.5 148.188C114.7 146.588 114 121.855 114.5 109.688C114.5 96.8548 114.5 70.8882 114.5 69.6882C114.5 68.1882 116.5 66.1882 118.5 73.6882C120.5 81.1882 127.5 107.688 126.5 108.688C125.5 109.688 125 115.188 120.5 113.188C116.9 111.588 117.667 108.188 118.5 106.688C121.667 106.688 128 106.288 128 104.688C128 102.688 134.5 37.6882 145.5 28.6882C156.5 19.6882 183 3.68818 193 1.68818C203 -0.311824 236.5 0.688175 259 23.6882C281.5 46.6882 291 83.1882 289 100.188C287 117.188 280 67.6882 266 51.6882C252 35.6882 245 24.6882 229.5 22.1882C214 19.6882 205 15.1882 188.5 18.6882C172 22.1882 152.5 31.1882 145.5 45.6882C138.5 60.1882 131 81.6882 132.5 84.6882C132.5 88.6882 132 88.1882 132.5 89.1882C133 90.1882 138.5 81.6882 138.5 81.1882C138.5 80.6882 153.5 52.1882 155 50.6882C156.5 49.1882 168 34.1882 181.5 31.1882C195 28.1882 214.5 26.1882 217 26.6882C219.5 27.1882 237 26.1882 250.5 39.6882C264 53.1882 288 86.6882 291.5 95.6882C295 104.688 294 69.6882 295 69.1882C296 68.6882 299 63.1882 298.5 80.1882C298 97.1882 298 105.188 296.5 105.188C295 105.188 281 103.188 280 105.188C279 107.188 273.5 109.188 279.5 112.688C285.5 116.188 293 116.688 294 115.188C295 113.688 298 110.688 294 108.688C290 106.688 283 114.188 282.5 118.188C282 122.188 279.5 172.188 276.5 175.688C273.5 179.188 269 185.188 267.5 183.188C266 181.188 263.5 177.188 266.5 167.688C269.5 158.188 275.5 129.188 274 119.688C272.5 110.188 275 104.188 267.5 102.188C260 100.188 253.5 101.188 252.5 102.188C251.5 103.188 244 109.188 242 119.188C240 129.188 236.5 184.188 237 186.188C237.5 188.188 237 194.188 245 194.188C253 194.188 260.5 188.188 260.5 187.188C260.5 186.188 251.5 189.188 250.5 188.188C249.5 187.188 253.5 163.188 253.5 162.188C253.5 161.188 259.5 115.688 261.5 112.688C263.5 109.688 270 109.688 270 111.188C270 112.688 284 119.188 284.5 124.688C285 130.188 283.5 153.688 284.5 155.188C285.5 156.688 287.5 160.688 289.5 158.688C291.5 156.688 293.5 149.188 292.5 147.688C291.5 146.188 290.5 143.688 289 144.188C287.5 144.688 287 146.688 288 147.688C289 148.688 297 151.688 296.5 153.688C296 155.688 291 179.688 292.5 182.188C294 184.688 297 195.188 311.5 188.688C326 182.188 350 169.188 361.5 167.688C373 166.188 387 164.188 405 175.688" stroke="#FFF9E3" stroke-width="2"/>
</svg>
