<svg width="329" height="163" viewBox="0 0 329 163" fill="none" xmlns="http://www.w3.org/2000/svg">
<path d="M1 142.657C9.63366 135.629 36.2901 127.493 73.8465 151.172C87.6064 154.415 86.797 156.037 94.8911 147.928C102.985 139.819 102.985 122.384 114.722 128.466C126.458 134.548 123.22 154.01 131.719 156.443C140.218 158.875 143.051 155.226 143.051 153.199C143.051 151.172 135.766 91.5695 132.528 86.704C129.291 81.8385 126.053 78.5948 123.22 79.4057C120.387 80.2167 114.722 87.9204 114.722 95.2186C114.722 102.517 120.387 147.523 124.03 151.983C127.672 156.443 130.91 159.686 131.719 158.875C132.528 158.064 134.957 151.577 133.743 148.739C132.528 145.901 126.863 89.9477 126.863 88.3258C126.863 86.704 123.625 79.8112 120.387 85.0822C117.15 90.3531 118.718 93.1913 116.745 93.5968C114.772 94.0022 107.032 93.1913 106.223 95.2186C105.413 97.2459 104.199 125.628 104.604 126.439C105.009 127.25 108.246 142.252 111.484 145.09C114.722 147.928 116.745 148.739 116.745 147.928C116.745 147.117 116.34 127.655 112.293 125.222C108.246 122.79 105.413 121.979 98.5334 120.357C93.0295 119.059 92.4629 99.0029 92.8676 89.1368C92.8676 78.73 92.8676 57.6733 92.8676 56.7002C92.8676 55.4838 94.4864 53.862 96.1052 59.9439C97.724 66.0257 103.39 87.5149 102.58 88.3258C101.771 89.1368 101.366 93.5968 97.724 91.975C94.8101 90.6775 95.4307 87.9204 96.1052 86.704C98.6683 86.704 103.795 86.3796 103.795 85.0822C103.795 83.4604 109.056 30.751 117.959 23.4527C126.863 16.1545 148.312 3.17988 156.406 1.55805C164.5 -0.0637764 191.615 0.747137 209.827 19.3982C228.038 38.0492 235.728 67.6476 234.109 81.4331C232.49 95.2187 226.824 55.0784 215.493 42.1038C204.161 29.1292 198.495 20.2091 185.949 18.1818C173.403 16.1546 166.119 12.5054 152.764 15.3436C139.408 18.1818 123.625 25.4801 117.959 37.2383C112.293 48.9966 106.223 66.4312 107.437 68.864C107.437 72.1076 107.032 71.7022 107.437 72.5131C107.842 73.324 112.293 66.4312 112.293 66.0258C112.293 65.6203 124.434 42.5093 125.649 41.2929C126.863 40.0765 136.171 27.9128 147.098 25.4801C158.025 23.0473 173.808 21.4255 175.832 21.8309C177.855 22.2364 192.02 21.4255 202.947 32.3728C213.874 43.3202 233.299 70.4858 236.132 77.784C238.965 85.0822 238.156 56.7003 238.965 56.2948C239.775 55.8893 242.203 51.4293 241.798 65.2148C241.394 79.0004 241.394 85.4877 240.179 85.4877C238.965 85.4877 227.634 83.8659 226.824 85.4877C226.015 87.1095 221.563 88.7314 226.42 91.5696C231.276 94.4078 237.347 94.8132 238.156 93.5968C238.965 92.3805 241.394 89.9477 238.156 88.3259C234.918 86.7041 229.252 92.7859 228.848 96.0296C228.443 99.2732 226.42 139.819 223.991 142.657C221.563 145.495 217.921 150.361 216.707 148.739C215.493 147.117 213.469 143.874 215.897 136.17C218.325 128.466 223.182 104.95 221.968 97.246C220.754 89.5423 222.777 84.6768 216.707 83.055C210.636 81.4331 205.375 82.244 204.566 83.055C203.756 83.8659 197.686 88.7314 196.067 96.8405C194.448 104.95 191.615 149.55 192.02 151.172C192.425 152.794 192.02 157.659 198.495 157.659C204.97 157.659 211.041 152.794 211.041 151.983C211.041 151.172 203.756 153.604 202.947 152.794C202.137 151.983 205.375 132.521 205.375 131.71C205.375 130.899 210.231 94.0023 211.85 91.5696C213.469 89.1368 218.73 89.1368 218.73 90.3532C218.73 91.5696 230.062 96.8405 230.467 101.301C230.871 105.761 229.657 124.817 230.467 126.033C231.276 127.25 232.895 130.493 234.514 128.872C236.132 127.25 237.751 121.168 236.942 119.952C236.132 118.735 235.323 116.708 234.109 117.113C232.895 117.519 232.49 119.141 233.299 119.952C234.109 120.762 240.584 123.195 240.179 124.817C239.775 126.439 235.728 145.901 236.942 147.928C238.156 149.955 240.584 158.47 252.321 153.199C264.057 147.928 283.483 137.386 292.791 136.17C302.099 134.953 313.431 133.332 328 142.657" stroke="#004228" stroke-width="2"/>
<path d="M1 144.657C9.63366 137.629 36.2901 129.493 73.8465 153.172C87.6064 156.415 86.797 158.037 94.8911 149.928C102.985 141.819 102.985 124.384 114.722 130.466C126.458 136.548 123.22 156.01 131.719 158.443C140.218 160.875 143.051 157.226 143.051 155.199C143.051 153.172 135.766 93.5695 132.528 88.704C129.291 83.8385 126.053 80.5948 123.22 81.4057C120.387 82.2167 114.722 89.9204 114.722 97.2186C114.722 104.517 120.387 149.523 124.03 153.983C127.672 158.443 130.91 161.686 131.719 160.875C132.528 160.064 134.957 153.577 133.743 150.739C132.528 147.901 126.863 91.9477 126.863 90.3258C126.863 88.704 123.625 81.8112 120.387 87.0822C117.15 92.3531 118.718 95.1913 116.745 95.5968C114.772 96.0022 107.032 95.1913 106.223 97.2186C105.413 99.2459 104.199 127.628 104.604 128.439C105.009 129.25 108.246 144.252 111.484 147.09C114.722 149.928 116.745 150.739 116.745 149.928C116.745 149.117 116.34 129.655 112.293 127.222C108.246 124.79 105.413 123.979 98.5334 122.357C93.0295 121.059 92.4629 101.003 92.8676 91.1368C92.8676 80.73 92.8676 59.6733 92.8676 58.7002C92.8676 57.4838 94.4864 55.862 96.1052 61.9439C97.724 68.0257 103.39 89.5149 102.58 90.3258C101.771 91.1368 101.366 95.5968 97.724 93.975C94.8101 92.6775 95.4307 89.9204 96.1052 88.704C98.6683 88.704 103.795 88.3796 103.795 87.0822C103.795 85.4604 109.056 32.751 117.959 25.4527C126.863 18.1545 148.312 5.17988 156.406 3.55805C164.5 1.93622 191.615 2.74714 209.827 21.3982C228.038 40.0492 235.728 69.6476 234.109 83.4331C232.49 97.2187 226.824 57.0784 215.493 44.1038C204.161 31.1292 198.495 22.2091 185.949 20.1818C173.403 18.1546 166.119 14.5054 152.764 17.3436C139.408 20.1818 123.625 27.4801 117.959 39.2383C112.293 50.9966 106.223 68.4312 107.437 70.864C107.437 74.1076 107.032 73.7022 107.437 74.5131C107.842 75.324 112.293 68.4312 112.293 68.0258C112.293 67.6203 124.434 44.5093 125.649 43.2929C126.863 42.0765 136.171 29.9128 147.098 27.4801C158.025 25.0473 173.808 23.4255 175.832 23.8309C177.855 24.2364 192.02 23.4255 202.947 34.3728C213.874 45.3202 233.299 72.4858 236.132 79.784C238.965 87.0822 238.156 58.7003 238.965 58.2948C239.775 57.8893 242.203 53.4293 241.798 67.2148C241.394 81.0004 241.394 87.4877 240.179 87.4877C238.965 87.4877 227.634 85.8659 226.824 87.4877C226.015 89.1095 221.563 90.7314 226.42 93.5696C231.276 96.4078 237.347 96.8132 238.156 95.5968C238.965 94.3805 241.394 91.9477 238.156 90.3259C234.918 88.7041 229.252 94.7859 228.848 98.0296C228.443 101.273 226.42 141.819 223.991 144.657C221.563 147.495 217.921 152.361 216.707 150.739C215.493 149.117 213.469 145.874 215.897 138.17C218.325 130.466 223.182 106.95 221.968 99.246C220.754 91.5423 222.777 86.6768 216.707 85.055C210.636 83.4331 205.375 84.244 204.566 85.055C203.756 85.8659 197.686 90.7314 196.067 98.8405C194.448 106.95 191.615 151.55 192.02 153.172C192.425 154.794 192.02 159.659 198.495 159.659C204.97 159.659 211.041 154.794 211.041 153.983C211.041 153.172 203.756 155.604 202.947 154.794C202.137 153.983 205.375 134.521 205.375 133.71C205.375 132.899 210.231 96.0023 211.85 93.5696C213.469 91.1368 218.73 91.1368 218.73 92.3532C218.73 93.5696 230.062 98.8405 230.467 103.301C230.871 107.761 229.657 126.817 230.467 128.033C231.276 129.25 232.895 132.493 234.514 130.872C236.132 129.25 237.751 123.168 236.942 121.952C236.132 120.735 235.323 118.708 234.109 119.113C232.895 119.519 232.49 121.141 233.299 121.952C234.109 122.762 240.584 125.195 240.179 126.817C239.775 128.439 235.728 147.901 236.942 149.928C238.156 151.955 240.584 160.47 252.321 155.199C264.057 149.928 283.483 139.386 292.791 138.17C302.099 136.953 313.431 135.332 328 144.657" stroke="#02B140"/>
<path d="M0.700195 144.587C19.4835 136.049 43.2804 129.918 63.1446 138.746C70.0216 141.803 75.9832 146.993 82.8053 150.278C86.156 151.891 90.7589 154.879 93.9152 151.633C98.7867 146.622 98.0785 136.294 104.754 133.327C110.919 130.587 113.226 135.175 116.978 138.927C120.219 142.167 123.728 145.135 126.974 148.381C129.597 151.004 131.684 152.716 135.374 152.716C138.495 152.716 141.122 153.028 142.269 149.585C145.883 138.742 140.365 125.541 137.392 115.202C134.803 106.202 132.608 96.2859 128.028 87.9838C127.726 87.4373 122.983 79.2862 121.675 80.7578C121.327 81.1488 121.555 82.6133 121.555 82.9858C121.555 87.2612 121.555 91.5366 121.555 95.812C121.555 103.883 121.999 111.917 123.482 119.868C124.319 124.358 125.883 128.691 126.673 133.206C127.32 136.904 126.974 140.845 126.974 144.587C126.974 147.25 128.557 154.054 125.228 155.005C122.706 155.725 120.819 152.848 119.658 151.03C116.559 146.18 116.677 140.702 116.677 135.163C116.677 131.679 116.495 128.246 117.339 124.836C118.718 119.268 120.864 114.04 121.434 108.277C121.956 102.999 122.559 95.0662 118.032 91.2355C114.573 88.3087 112.083 89.1648 109.21 92.5603C103.909 98.8255 104.98 107.803 105.326 115.593C105.456 118.511 105.893 121.148 106.802 123.873C107.764 126.76 102.454 122.616 102.044 122.247C93.215 114.3 91.5793 100.284 90.1216 89.3086C89.3991 83.8685 89.1461 77.9958 89.8807 72.5383C90.3997 68.683 91.8074 65.0437 92.2894 61.1875C92.4427 59.9607 92.349 57.3213 92.9518 56.2498C93.727 54.8716 99.3903 65.1857 99.7562 66.0048C102.037 71.11 103.433 76.5843 105.808 81.631C105.924 81.8777 107.594 85.5692 108.006 84.6418C112.728 74.0165 112.341 61.2685 112.341 49.8668C112.341 42.2394 112.341 34.612 112.341 26.9846C112.341 22.0643 114.032 20.5904 118.333 18.3134C124.441 15.0795 130.98 12.6929 137.392 10.1842C143.328 7.8611 149.478 4.16495 155.818 3.25928C161.838 2.39923 169.387 2.74542 175.207 4.52383C183.176 6.95873 190.1 11.8233 197.849 15.0617C204.58 17.8749 215.374 23.0492 218.292 30.5072C220.763 36.8203 224.31 42.5393 226.151 49.084C227.959 55.5127 228.16 62.1425 229.131 68.7447C229.211 69.2868 231.671 81.2981 234.28 78.2288C235.946 76.2679 235.364 70.5786 235.364 68.2027C235.364 65.1073 235.241 61.9827 236.177 58.9896C237.26 55.5239 240.093 56.6221 241.325 59.3509C243.519 64.209 243.493 70.0052 243.493 75.2179C243.493 77.2647 244.306 81.3758 243.372 83.3471C241.839 86.5846 238.159 88.6471 234.852 89.3086C231.224 90.0342 227.621 89.4218 223.983 89.971C219.887 90.5892 216.937 89.5184 216.937 94.6076C216.937 95.3701 217.108 96.7367 216.335 95.4808C214.602 92.6642 212.48 90.0558 210.735 87.201C208.652 83.7929 204.49 83.8891 200.799 83.8891C195.002 83.8891 196.343 97.7875 196.343 101.472C196.343 106.888 196.714 111.929 197.969 117.219C198.873 121.029 199.939 124.576 199.264 128.479C197.825 136.791 193.692 146.138 195.38 154.764C195.842 157.127 199.626 162.555 202.576 161.899C204.856 161.393 204.46 154.868 204.473 153.379C204.543 145.029 204.397 136.678 204.473 128.329C204.521 122.995 205.102 117.706 206.911 112.673C208.107 109.345 209.733 104.642 212.301 102.074C213.84 100.535 215.676 99.9216 216.937 98.1002C221.234 91.8938 223.552 109.834 223.682 111.257C224.779 123.328 219.655 133.691 217.6 145.25C217.476 145.945 216.903 149.263 218.262 149.224C222.673 149.098 224.983 141.717 226.03 138.505C228.395 131.248 229.218 123.46 230.215 115.924C230.566 113.276 230.99 110.652 231.028 107.976C231.028 107.951 230.987 105.438 231.299 105.687C231.82 106.104 231.979 108.043 232.172 108.608C232.946 110.873 234.005 113.028 234.701 115.322C235.72 118.681 236.448 121.992 236.448 125.499C236.448 126.48 235.985 128.89 236.749 129.654C238.328 131.233 238.615 131.781 238.615 134.35C238.615 137.88 234.949 148.805 239.458 150.79C247.403 154.285 257.705 151.309 265.592 149.465C269.884 148.462 275.116 147.795 279.021 145.641C287.416 141.009 296.406 139.33 305.817 137.662C315.034 136.029 320.51 136.318 328.037 141.336" stroke="#004228" stroke-linecap="round"/>
</svg>
